<?xml version="1.0" encoding="UTF-8"?>
<svg version="1.1" xmlns="http://www.w3.org/2000/svg" width="180" height="180">
<path d="M0 0 C59.4 0 118.8 0 180 0 C180 59.4 180 118.8 180 180 C120.6 180 61.2 180 0 180 C0 120.6 0 61.2 0 0 Z " fill="#0166A3" transform="translate(0,0)"/>
<path d="M0 0 C59.4 0 118.8 0 180 0 C180 28.05 180 56.1 180 85 C169.78651685 86.13483146 169.78651685 86.13483146 164.125 84.75 C162.48917969 84.37101562 162.48917969 84.37101562 160.8203125 83.984375 C158.042432 83.01481006 156.72905002 82.34570422 155 80 C155 79.34 155 78.68 155 78 C152.69 77.67 150.38 77.34 148 77 C147.67 79.31 147.34 81.62 147 84 C146.34 84 145.68 84 145 84 C145 81.69 145 79.38 145 77 C144.34 77 143.68 77 143 77 C143 77.99 143 78.98 143 80 C141.68 80 140.36 80 139 80 C138.67 80.99 138.34 81.98 138 83 C138 82.34 138 81.68 138 81 C137.01 81.33 136.02 81.66 135 82 C134.67 83.65 134.34 85.3 134 87 C135.27875 86.896875 136.5575 86.79375 137.875 86.6875 C138.59429687 86.62949219 139.31359375 86.57148437 140.0546875 86.51171875 C142.39519216 86.12606964 142.39519216 86.12606964 144 83 C144 84.32 144 85.64 144 87 C144.66 87 145.32 87 146 87 C146 86.34 146 85.68 146 85 C146.66 85 147.32 85 148 85 C148.33 86.32 148.66 87.64 149 89 C144.53763531 90.80619523 141.68965706 91.11658501 137 90 C137 89.34 137 88.68 137 88 C135.02463255 88.34786708 135.02463255 88.34786708 133 89 C132.67 89.66 132.34 90.32 132 91 C129.6859378 91.73075648 127.35171131 92.40138258 125 93 C124.34 92.01 123.68 91.02 123 90 C122.401875 90.33 121.80375 90.66 121.1875 91 C118.54194849 92.20939498 116.83182518 92.2683307 114.0625 91.375 C111.38474118 90.88813476 110.35955507 91.74648637 108 93 C103.91621923 93 100.87684087 92.19287411 97 91 C96.4225 91.680625 95.845 92.36125 95.25 93.0625 C93 95 93 95 91.125 95.0625 C88.58614715 93.79307357 86.70721467 92.0153788 84.59375 90.14453125 C82.21458958 88.43596751 79.86901929 88.20492995 77 88 C77.33 89.32 77.66 90.64 78 92 C76.35 92.33 74.7 92.66 73 93 C73.495 91.02 73.495 91.02 74 89 C70.20452079 89.96776098 70.20452079 89.96776098 67 92 C65.33382885 92.04063832 63.66611905 92.042721 62 92 C62 91.34 62 90.68 62 90 C61.01 90.66 60.02 91.32 59 92 C58.01 92 57.02 92 56 92 C55.67 90.35 55.34 88.7 55 87 C54.01 87.66 53.02 88.32 52 89 C50.68 89 49.36 89 48 89 C47.505 90.98 47.505 90.98 47 93 C44.69 93 42.38 93 40 93 C40 93.66 40 94.32 40 95 C39.01 94.67 38.02 94.34 37 94 C37.33 91.69 37.66 89.38 38 87 C36.68 87 35.36 87 34 87 C34.061875 87.78375 34.12375 88.5675 34.1875 89.375 C34.125625 90.24125 34.06375 91.1075 34 92 C33.01 92.66 32.02 93.32 31 94 C30.31867549 95.66072849 29.65257873 97.327767 29 99 C27.19104648 101.41193803 26.27544506 101.92953731 23.3125 102.6875 C22.549375 102.790625 21.78625 102.89375 21 103 C20.67 102.01 20.34 101.02 20 100 C19.34 99.67 18.68 99.34 18 99 C18.33 98.34 18.66 97.68 19 97 C17.02 97.495 17.02 97.495 15 98 C15.66 95.69 16.32 93.38 17 91 C19.475 90.505 19.475 90.505 22 90 C21.67 91.98 21.34 93.96 21 96 C23.475 95.505 23.475 95.505 26 95 C26 91.37 26 87.74 26 84 C25.01 84 24.02 84 23 84 C20.32964195 80.32825768 18.7194628 76.17583822 17 72 C14.03 72.99 14.03 72.99 11 74 C11.66 77.3 12.32 80.6 13 84 C13.66 84 14.32 84 15 84 C14.25 90.625 14.25 90.625 12 94 C10.57741188 90.17679443 9.75957724 87.08718695 10 83 C9.34 82.67 8.68 82.34 8 82 C8 81.34 8 80.68 8 80 C6.515 80.99 6.515 80.99 5 82 C5 82.99 5 83.98 5 85 C2.525 85.495 2.525 85.495 0 86 C0 57.62 0 29.24 0 0 Z " fill="#0084DF" transform="translate(0,0)"/>
<path d="M0 0 C2.82572058 1.03293147 3.82978305 1.67952982 5.265625 4.3828125 C5.75289062 5.74019531 5.75289062 5.74019531 6.25 7.125 C6.58515625 8.03507812 6.9203125 8.94515625 7.265625 9.8828125 C7.62914062 10.93082031 7.62914062 10.93082031 8 12 C8.99 12 9.98 12 11 12 C11.33 12 11.66 12 12 12 C11.67 15.96 11.34 19.92 11 24 C9.35 24.33 7.7 24.66 6 25 C6.33 23.02 6.66 21.04 7 19 C5.06890419 18.95710245 5.06890419 18.95710245 3 20 C1.20728609 23.48797488 1.20728609 23.48797488 0 27 C1.32 26.67 2.64 26.34 4 26 C4.66 27.65 5.32 29.3 6 31 C10.41522109 29.73025028 10.41522109 29.73025028 14 27 C14.4640625 25.7315625 14.4640625 25.7315625 14.9375 24.4375 C15.288125 23.633125 15.63875 22.82875 16 22 C16.99 21.67 17.98 21.34 19 21 C19 19.35 19 17.7 19 16 C20.32 16 21.64 16 23 16 C23 18.31 23 20.62 23 23 C23.66 23.33 24.32 23.66 25 24 C25 23.34 25 22.68 25 22 C27.31 21.67 29.62 21.34 32 21 C32.495 19.515 32.495 19.515 33 18 C36.5625 16.8125 36.5625 16.8125 40 16 C40.495 18.475 40.495 18.475 41 21 C42.98 20.34 44.96 19.68 47 19 C47 19.66 47 20.32 47 21 C48.36125 20.5359375 48.36125 20.5359375 49.75 20.0625 C56.05882353 18 56.05882353 18 59 18 C59.495 19.485 59.495 19.485 60 21 C60.99 21 61.98 21 63 21 C62.01 18.525 62.01 18.525 61 16 C67.42121394 16.93730138 70.44384844 18.18349692 75 23 C77.82620334 23 78.78524757 22.19327719 80.875 20.3125 C81.926875 19.6628125 81.926875 19.6628125 83 19 C86 19.8125 86 19.8125 89 21 C90.32 21 91.64 21 93 21 C93.66 21 94.32 21 95 21 C95.66 20.34 96.32 19.68 97 19 C98.9375 19.375 98.9375 19.375 101 20 C104.20395416 20 106.09399739 19.25664978 109 18 C109.99 19.485 109.99 19.485 111 21 C112.65 20.67 114.3 20.34 116 20 C116.06058594 20.75925781 116.12117187 21.51851562 116.18359375 22.30078125 C116.26738281 23.29464844 116.35117188 24.28851563 116.4375 25.3125 C116.51871094 26.29863281 116.59992188 27.28476563 116.68359375 28.30078125 C116.91812559 31.09375599 116.91812559 31.09375599 118 34 C118.66 34.33 119.32 34.66 120 35 C119.01 35.495 119.01 35.495 118 36 C117.34 35.67 116.68 35.34 116 35 C116.515625 35.763125 117.03125 36.52625 117.5625 37.3125 C118.036875 38.199375 118.51125 39.08625 119 40 C118.67 40.99 118.34 41.98 118 43 C115.07120629 42.37240135 112.63904371 41.41377341 110 40 C110.495 42.475 110.495 42.475 111 45 C110.34 45 109.68 45 109 45 C109 45.66 109 46.32 109 47 C109.66 47 110.32 47 111 47 C111.99 49.475 111.99 49.475 113 52 C111.36587557 53.70840281 110.13093906 54.93453047 108 56 C108.33 56.99 108.66 57.98 109 59 C108.01 59.495 108.01 59.495 107 60 C106.67 59.01 106.34 58.02 106 57 C105.21625 56.690625 104.4325 56.38125 103.625 56.0625 C100.62531658 54.84834242 99.63207298 53.7487545 98 51 C98 50.34 98 49.68 98 49 C97.34 49 96.68 49 96 49 C94.30859375 47.03125 94.30859375 47.03125 92.4375 44.5 C91.31245447 42.98434615 90.17162248 41.47994419 89 40 C88.67 40 88.34 40 88 40 C88.99 41.32 89.98 42.64 91 44 C90.34 44 89.68 44 89 44 C89 44.99 89 45.98 89 47 C87 47 87 47 84.4375 44.875 C81.78365704 41.74482626 81.28084572 40.02545534 81 36 C80.01 36 79.02 36 78 36 C76.61328125 34.3203125 76.61328125 34.3203125 75.3125 32.125 C74.87550781 31.40570313 74.43851562 30.68640625 73.98828125 29.9453125 C73 28 73 28 73 26 C72.01 26 71.02 26 70 26 C70 25.01 70 24.02 70 23 C69.34 23.33 68.68 23.66 68 24 C68.433125 24.54269531 68.86625 25.08539063 69.3125 25.64453125 C69.869375 26.35996094 70.42625 27.07539062 71 27.8125 C71.556875 28.52019531 72.11375 29.22789063 72.6875 29.95703125 C74 32 74 32 74 35 C75.485 35.495 75.485 35.495 77 36 C78.2063366 41.22745859 77.75612577 45.76528314 77 51 C79.31 51 81.62 51 84 51 C80.87378374 54.39417765 78.43458973 56.6062718 74 58 C73.67 57.34 73.34 56.68 73 56 C72.01 56.495 72.01 56.495 71 57 C71 56.34 71 55.68 71 55 C70.01 55 69.02 55 68 55 C68 55.66 68 56.32 68 57 C67.67 57.33 67.34 57.66 67 58 C67.33 58.99 67.66 59.98 68 61 C67.071875 61.495 66.14375 61.99 65.1875 62.5 C62.34013302 64.35178412 61.48074318 65.83496336 60.5 69.0625 C59.4232249 72.52494447 59.20253445 72.86773261 55.9375 75 C53 76 53 76 51 76 C51 77.32 51 78.64 51 80 C50.34 80 49.68 80 49 80 C49 83.63 49 87.26 49 91 C46.03 91.495 46.03 91.495 43 92 C42.505 93.485 42.505 93.485 42 95 C41.01 94.67 40.02 94.34 39 94 C38.67 93.01 38.34 92.02 38 91 C37.01 91.495 37.01 91.495 36 92 C37 90 38 88 39 86 C39.66 86 40.32 86 41 86 C41 85.34 41 84.68 41 84 C38.13275314 84.57344937 37.1385485 84.8614515 35 87 C34.67 86.34 34.34 85.68 34 85 C33.67 85.66 33.34 86.32 33 87 C31.35 87 29.7 87 28 87 C27.67 87.66 27.34 88.32 27 89 C24.0652503 90.34839851 21.14952839 91.3001048 18 92 C17.67 91.01 17.34 90.02 17 89 C13.01803543 87.94595055 10.01804691 88.15901344 6 89 C6 88.34 6 87.68 6 87 C1.23872375 88.73925099 1.23872375 88.73925099 -2.6875 91.75 C-3.120625 92.1625 -3.55375 92.575 -4 93 C-6 92.6875 -6 92.6875 -8 92 C-8.99 92 -9.98 92 -11 92 C-11.66 92 -12.32 92 -13 92 C-13 89.03 -13 86.06 -13 83 C-13.66 82.67 -14.32 82.34 -15 82 C-15 59.89 -15 37.78 -15 15 C-14.34 15 -13.68 15 -13 15 C-12.67 14.34 -12.34 13.68 -12 13 C-11.34 13.33 -10.68 13.66 -10 14 C-10.33 12.68 -10.66 11.36 -11 10 C-9.68 9.67 -8.36 9.34 -7 9 C-7 9.66 -7 10.32 -7 11 C-6.01 11.33 -5.02 11.66 -4 12 C-3.67 15.3 -3.34 18.6 -3 22 C-2.01 19.03 -1.02 16.06 0 13 C-0.66 13 -1.32 13 -2 13 C-2.66 9.7 -3.32 6.4 -4 3 C-2.68 2.01 -1.36 1.02 0 0 Z M-8 93 C-7.67 93.99 -7.34 94.98 -7 96 C-7.99 95.67 -8.98 95.34 -10 95 C-9.34 94.34 -8.68 93.68 -8 93 Z " fill="#006EAC" transform="translate(15,71)"/>
<path d="M0 0 C1.62490954 -0.02698189 3.24994633 -0.04638757 4.875 -0.0625 C6.23238281 -0.07990234 6.23238281 -0.07990234 7.6171875 -0.09765625 C10 0 10 0 12 1 C12 1.66 12 2.32 12 3 C14.475 3.495 14.475 3.495 17 4 C17 4.66 17 5.32 17 6 C18.65 5.67 20.3 5.34 22 5 C21.34 5.33 20.68 5.66 20 6 C20 6.99 20 7.98 20 9 C20.78375 9.0825 21.5675 9.165 22.375 9.25 C25 10 25 10 26.3125 12.0625 C26.539375 12.701875 26.76625 13.34125 27 14 C27.99 14 28.98 14 30 14 C30 33.14 30 52.28 30 72 C18.98625 72.1546875 18.98625 72.1546875 7.75 72.3125 C5.43709961 72.35802002 3.12419922 72.40354004 0.74121094 72.45043945 C-1.09438628 72.46504402 -2.92999969 72.47778476 -4.765625 72.48828125 C-5.71679199 72.51386108 -6.66795898 72.53944092 -7.64794922 72.5657959 C-14.37951288 72.57025035 -14.37951288 72.57025035 -17.52392578 69.68041992 C-19.28696309 66.47890047 -21.03570817 63.29109989 -22.625 60 C-22.9240625 59.39671875 -23.223125 58.7934375 -23.53125 58.171875 C-25.17151805 54.83327632 -26.67092139 51.47402726 -28 48 C-28.66 48 -29.32 48 -30 48 C-33.04157942 42.77228537 -34.50610724 39.07328688 -34 33 C-29.22742639 36.27262191 -26.85483261 40.12174216 -24 45 C-23.34 45.99 -22.68 46.98 -22 48 C-21.67 47.484375 -21.34 46.96875 -21 46.4375 C-18.30457228 44.50016132 -16.17932677 44.76658 -12.98046875 45.28515625 C-9.67569843 46.47800234 -8.11228281 49.29194511 -6 52 C-3.70583833 53.31094952 -1.50657554 54.11532628 1 55 C1 55.66 1 56.32 1 57 C1.66 57 2.32 57 3 57 C0.05817944 51.01691341 0.05817944 51.01691341 -4.25 46.0625 C-7.15969922 42.63321164 -6.83339525 38.36504434 -7 34 C-6.01 33.505 -6.01 33.505 -5 33 C-4.690625 32.34 -4.38125 31.68 -4.0625 31 C-3 29 -3 29 0 28 C-1.65 25.69 -3.3 23.38 -5 21 C-4.67 20.34 -4.34 19.68 -4 19 C-3.34 19 -2.68 19 -2 19 C-2 19.99 -2 20.98 -2 22 C-1.34 22 -0.68 22 0 22 C0 22.66 0 23.32 0 24 C1.98 24 3.96 24 6 24 C6.495 22.515 6.495 22.515 7 21 C10.08843563 21 12.94507053 21.48001201 16 22 C16 20.68 16 19.36 16 18 C15.01 17.67 14.02 17.34 13 17 C13 14.69 13 12.38 13 10 C12.01 10.33 11.02 10.66 10 11 C10 10.34 10 9.68 10 9 C9.34 9 8.68 9 8 9 C8 11.64 8 14.28 8 17 C6.35 17 4.7 17 3 17 C1.66667905 14.3333581 2.32897967 12.83319697 3 10 C1.02 9.67 -0.96 9.34 -3 9 C-4.125 5.25 -4.125 5.25 -3 3 C-2.01 3 -1.02 3 0 3 C0 2.01 0 1.02 0 0 Z " fill="#004575" transform="translate(150,108)"/>
<path d="M0 0 C6.42121394 0.93730138 9.44384844 2.18349692 14 7 C16.82620334 7 17.78524757 6.19327719 19.875 4.3125 C20.926875 3.6628125 20.926875 3.6628125 22 3 C25 3.8125 25 3.8125 28 5 C29.32 5 30.64 5 32 5 C32.66 5 33.32 5 34 5 C34.66 4.34 35.32 3.68 36 3 C37.9375 3.375 37.9375 3.375 40 4 C43.20395416 4 45.09399739 3.25664978 48 2 C48.99 3.485 48.99 3.485 50 5 C52.475 4.505 52.475 4.505 55 4 C55.06058594 4.75925781 55.12117188 5.51851563 55.18359375 6.30078125 C55.26738281 7.29464844 55.35117188 8.28851563 55.4375 9.3125 C55.51871094 10.29863281 55.59992188 11.28476563 55.68359375 12.30078125 C55.91812559 15.09375599 55.91812559 15.09375599 57 18 C57.66 18.33 58.32 18.66 59 19 C58.34 19.33 57.68 19.66 57 20 C56.34 19.67 55.68 19.34 55 19 C55.515625 19.763125 56.03125 20.52625 56.5625 21.3125 C57.036875 22.199375 57.51125 23.08625 58 24 C57.505 25.485 57.505 25.485 57 27 C54.07120629 26.37240135 51.63904371 25.41377341 49 24 C49.495 26.475 49.495 26.475 50 29 C49.34 29 48.68 29 48 29 C48 29.66 48 30.32 48 31 C48.66 31 49.32 31 50 31 C50.99 33.475 50.99 33.475 52 36 C50.36587557 37.70840281 49.13093906 38.93453047 47 40 C47.33 40.99 47.66 41.98 48 43 C47.01 43.495 47.01 43.495 46 44 C45.67 43.01 45.34 42.02 45 41 C44.21625 40.690625 43.4325 40.38125 42.625 40.0625 C39.62531658 38.84834242 38.63207298 37.7487545 37 35 C37 34.34 37 33.68 37 33 C36.34 33 35.68 33 35 33 C33.30859375 31.03125 33.30859375 31.03125 31.4375 28.5 C30.31245447 26.98434615 29.17162248 25.47994419 28 24 C27.67 24 27.34 24 27 24 C27.99 25.32 28.98 26.64 30 28 C29.34 28 28.68 28 28 28 C28 28.99 28 29.98 28 31 C26 31 26 31 23.4375 28.875 C20.78365704 25.74482626 20.28084572 24.02545534 20 20 C19.01 20 18.02 20 17 20 C15.61328125 18.3203125 15.61328125 18.3203125 14.3125 16.125 C13.87550781 15.40570313 13.43851563 14.68640625 12.98828125 13.9453125 C12 12 12 12 12 10 C11.01 10 10.02 10 9 10 C9 9.01 9 8.02 9 7 C8.34 7.33 7.68 7.66 7 8 C7.433125 8.54269531 7.86625 9.08539063 8.3125 9.64453125 C8.869375 10.35996094 9.42625 11.07539062 10 11.8125 C10.556875 12.52019531 11.11375 13.22789063 11.6875 13.95703125 C13 16 13 16 13 19 C13.99 19.33 14.98 19.66 16 20 C17.2063366 25.22745859 16.75612577 29.76528314 16 35 C18.31 35 20.62 35 23 35 C19.87378374 38.39417765 17.43458973 40.6062718 13 42 C12.67 41.34 12.34 40.68 12 40 C11.01 40.495 11.01 40.495 10 41 C9.67 40.01 9.34 39.02 9 38 C9.99 38 10.98 38 12 38 C11.505 34.535 11.505 34.535 11 31 C10.18595703 31.433125 10.18595703 31.433125 9.35546875 31.875 C8.64003906 32.24625 7.92460938 32.6175 7.1875 33 C6.47980469 33.37125 5.77210937 33.7425 5.04296875 34.125 C3 35 3 35 0 35 C0 34.01 0 33.02 0 32 C-0.7425 31.896875 -1.485 31.79375 -2.25 31.6875 C-5.21722987 30.94569253 -6.80552883 30.11319446 -9 28 C-9 27.01 -9 26.02 -9 25 C-3.74285714 21 -3.74285714 21 -1 21 C-1 20.01 -1 19.02 -1 18 C-1.55429688 18.433125 -2.10859375 18.86625 -2.6796875 19.3125 C-3.40414062 19.869375 -4.12859375 20.42625 -4.875 21 C-5.59429687 21.556875 -6.31359375 22.11375 -7.0546875 22.6875 C-9 24 -9 24 -11 24 C-11.33 24.99 -11.66 25.98 -12 27 C-13.98 27.33 -15.96 27.66 -18 28 C-17.34 28.66 -16.68 29.32 -16 30 C-16.804375 30.185625 -17.60875 30.37125 -18.4375 30.5625 C-23.31923861 32.53232435 -26.97673753 35.65622186 -31 39 C-31 38.01 -31 37.02 -31 36 C-31.62599617 34.31763529 -32.28752268 32.6476038 -33 31 C-31.125 29.9375 -31.125 29.9375 -29 29 C-28.34 29.33 -27.68 29.66 -27 30 C-27 29.01 -27 28.02 -27 27 C-26.030625 26.360625 -25.06125 25.72125 -24.0625 25.0625 C-20.94145355 23.34929406 -20.94145355 23.34929406 -20.0625 20.9375 C-19.88083901 18.77973272 -19.88083901 18.77973272 -21 16 C-20.01 15.67 -19.02 15.34 -18 15 C-16.62804426 13.70644173 -15.28817344 12.37701298 -14 11 C-14.185625 12.0725 -14.37125 13.145 -14.5625 14.25 C-14.9304568 17.40391546 -15.04465343 19.09818492 -14 22 C-12.68 22 -11.36 22 -10 22 C-10 21.34 -10 20.68 -10 20 C-10.66 19.67 -11.32 19.34 -12 19 C-11.34 19 -10.68 19 -10 19 C-10.103125 18.2575 -10.20625 17.515 -10.3125 16.75 C-10 14 -10 14 -7.75 11.6875 C-5 10 -5 10 -1 10 C0.89661743 8.85353452 0.89661743 8.85353452 2 7 C1.8237956 4.96128755 1.8237956 4.96128755 1 3 C0.505 1.515 0.505 1.515 0 0 Z " fill="#016DBC" transform="translate(76,87)"/>
<path d="M0 0 C0.99 0.33 1.98 0.66 3 1 C4.89584586 1.01966062 6.79237381 0.99331037 8.6875 0.9375 C12.503969 0.89135164 15.82406649 1.0241007 19.5 2.0625 C23.07791796 3.32426596 23.07791796 3.32426596 27 2 C27 14.21 27 26.42 27 39 C26.01 39 25.02 39 24 39 C23.525625 38.360625 23.05125 37.72125 22.5625 37.0625 C20.72024565 34.63072425 19.84755701 34.66442997 17 34 C16.67 33.01 16.34 32.02 16 31 C15.34 31 14.68 31 14 31 C14 30.34 14 29.68 14 29 C12.35 28.67 10.7 28.34 9 28 C9 27.34 9 26.68 9 26 C5.04 25.67 1.08 25.34 -3 25 C-3 25.99 -3 26.98 -3 28 C-3.99 28 -4.98 28 -6 28 C-6 29.98 -6 31.96 -6 34 C-3.03 34.495 -3.03 34.495 0 35 C1 38 1 38 0 41 C1.65 41.33 3.3 41.66 5 42 C5 39.36 5 36.72 5 34 C5.66 34 6.32 34 7 34 C7 34.66 7 35.32 7 36 C8.32 35.34 9.64 34.68 11 34 C11 36.64 11 39.28 11 42 C11.99 42.495 11.99 42.495 13 43 C13.625 45.0625 13.625 45.0625 14 47 C11 48 11 48 8 48 C7.34 48.66 6.68 49.32 6 50 C6 48.68 6 47.36 6 46 C5.34 46 4.68 46 4 46 C3.67 47.32 3.34 48.64 3 50 C0.03 49.505 0.03 49.505 -3 49 C-3 48.34 -3 47.68 -3 47 C-3.66 47 -4.32 47 -5 47 C-5 46.01 -5 45.02 -5 44 C-5.66 44 -6.32 44 -7 44 C-6.42647107 47.87132028 -4.51295648 50.08172796 -2 53 C-2.495 53.99 -2.495 53.99 -3 55 C-3.99 55 -4.98 55 -6 55 C-6.66 56.32 -7.32 57.64 -8 59 C-8.66 59 -9.32 59 -10 59 C-9.12739325 65.70735036 -8.23841921 69.4004124 -3 74 C0 79.27586207 0 79.27586207 0 82 C-0.66 82 -1.32 82 -2 82 C-2 81.34 -2 80.68 -2 80 C-2.721875 79.9175 -3.44375 79.835 -4.1875 79.75 C-8.83310434 78.51117218 -11.37592538 75.93611193 -14 72 C-18.00036466 71.0283695 -18.00036466 71.0283695 -22 71 C-24.52590848 72.77154652 -24.52590848 72.77154652 -26 75 C-26.29132813 74.35933594 -26.58265625 73.71867187 -26.8828125 73.05859375 C-29.64324118 67.23391562 -32.59858165 62.70849405 -37 58 C-36.34 56.35 -35.68 54.7 -35 53 C-28.47692308 52.63076923 -28.47692308 52.63076923 -26.0625 54.5 C-25.711875 54.995 -25.36125 55.49 -25 56 C-24.34 54.35 -23.68 52.7 -23 51 C-21.576875 51.0309375 -21.576875 51.0309375 -20.125 51.0625 C-17.09333717 51.22551826 -17.09333717 51.22551826 -15 50 C-15.66 49.34 -16.32 48.68 -17 48 C-17 46.68 -17 45.36 -17 44 C-16.01 44 -15.02 44 -14 44 C-13.87882812 43.38511719 -13.75765625 42.77023438 -13.6328125 42.13671875 C-13.46523437 41.32847656 -13.29765625 40.52023438 -13.125 39.6875 C-12.96257812 38.88699219 -12.80015625 38.08648437 -12.6328125 37.26171875 C-12 35 -12 35 -10 32 C-9.34 32 -8.68 32 -8 32 C-8 29.36 -8 26.72 -8 24 C-7.01 24 -6.02 24 -5 24 C-4.67 23.34 -4.34 22.68 -4 22 C0.95 22.99 0.95 22.99 6 24 C6 23.01 6 22.02 6 21 C4.02 20.34 2.04 19.68 0 19 C0.99 18.67 1.98 18.34 3 18 C3.495 16.515 3.495 16.515 4 15 C4.66 15 5.32 15 6 15 C5.57476184 13.39253944 5.13429874 11.78910164 4.6875 10.1875 C4.44386719 9.29417969 4.20023438 8.40085937 3.94921875 7.48046875 C2.96958544 4.92052162 1.96629339 3.8341056 0 2 C0 1.34 0 0.68 0 0 Z " fill="#015897" transform="translate(153,83)"/>
<path d="M0 0 C0.99 0.33 1.98 0.66 3 1 C2.67 3.97 2.34 6.94 2 10 C3.32 9.34 4.64 8.68 6 8 C6.66 8.66 7.32 9.32 8 10 C10.97604952 9.79475521 12.17238213 8.85778474 14.5 6.9375 C17 5 17 5 21 5 C21 5.66 21 6.32 21 7 C22.051875 6.62875 23.10375 6.2575 24.1875 5.875 C28.18632214 4.95723754 29.49128216 5.08615391 33 7 C33 7.66 33 8.32 33 9 C36.14737182 8.30058404 39.02588876 7.23921302 42 6 C42 6.99 42 7.98 42 9 C43.65 8.67 45.3 8.34 47 8 C48.56610583 13.7825446 48.56610583 13.7825446 46.98828125 17.17578125 C45.71785479 19.16696541 44.38207388 21.08534351 43 23 C42.67 23.66 42.34 24.32 42 25 C41.34 25 40.68 25 40 25 C40 25.66 40 26.32 40 27 C26.8 27 13.6 27 0 27 C0 18.09 0 9.18 0 0 Z M7 11 C6.01 12.485 6.01 12.485 5 14 C5.99 14 6.98 14 8 14 C7.67 13.01 7.34 12.02 7 11 Z " fill="#005688" transform="translate(0,153)"/>
<path d="M0 0 C0.33 0.99 0.66 1.98 1 3 C0.34 3 -0.32 3 -1 3 C-0.01 4.65 0.98 6.3 2 8 C2.61875 7.690625 3.2375 7.38125 3.875 7.0625 C5.25 6.375 6.625 5.6875 8 5 C8.66 6.32 9.32 7.64 10 9 C10.969375 8.835 11.93875 8.67 12.9375 8.5 C16 8 16 8 17 8 C17 5.69 17 3.38 17 1 C20.37655185 4.92921617 22.76184874 8.99344139 25.125 13.5625 C25.47175781 14.22185547 25.81851563 14.88121094 26.17578125 15.56054688 C27.81800054 18.69083077 29.41910067 21.83820133 31 25 C12.52 25 -5.96 25 -25 25 C-24.34 23.02 -23.68 21.04 -23 19 C-22.34 19 -21.68 19 -21 19 C-20.73703125 18.42507812 -20.4740625 17.85015625 -20.203125 17.2578125 C-17.54435178 12.26829651 -14.02642683 7.76468937 -8.6875 5.75 C-7.3571875 5.37875 -7.3571875 5.37875 -6 5 C-4.86649466 2.98330173 -4.86649466 2.98330173 -4 1 C-1.875 0.25 -1.875 0.25 0 0 Z " fill="#00649F" transform="translate(104,155)"/>
<path d="M0 0 C6.11181853 1.22236371 8.23421876 3.21644004 12 8 C10.35 8.33 8.7 8.66 7 9 C7 8.34 7 7.68 7 7 C6.34 7 5.68 7 5 7 C5.26676204 8.98491642 5.26676204 8.98491642 6 11 C6.99 11.33 7.98 11.66 9 12 C10.52160014 15.6037898 11 18.05220686 11 22 C10.34 22 9.68 22 9 22 C8.40929986 23.94603274 8.40929986 23.94603274 8 26 C9.05270463 27.15811388 9.05270463 27.15811388 11 28 C11 28.99 11 29.98 11 31 C6.33333333 31 1.66666667 31 -3 31 C-3 33.64 -3 36.28 -3 39 C-3.66 39 -4.32 39 -5 39 C-5.99 41.475 -5.99 41.475 -7 44 C-7.99 43.34 -8.98 42.68 -10 42 C-12.33199388 41.92094936 -14.66832622 41.91201231 -17 42 C-17 42.66 -17 43.32 -17 44 C-18.65 44 -20.3 44 -22 44 C-22 43.34 -22 42.68 -22 42 C-22.66 42 -23.32 42 -24 42 C-24 41.34 -24 40.68 -24 40 C-23.34 40 -22.68 40 -22 40 C-22.33 38.35 -22.66 36.7 -23 35 C-21.35 35 -19.7 35 -18 35 C-18 35.66 -18 36.32 -18 37 C-17.01 37 -16.02 37 -15 37 C-15.33 36.401875 -15.66 35.80375 -16 35.1875 C-17 33 -17 33 -17 30 C-16.01 30 -15.02 30 -14 30 C-15.32 28.35 -16.64 26.7 -18 25 C-17.34 25 -16.68 25 -16 25 C-16.391875 23.783125 -16.78375 22.56625 -17.1875 21.3125 C-17.99154768 18.10201175 -18.08323583 17.22196222 -16.875 14 C-15.946875 13.01 -15.946875 13.01 -15 12 C-13.68 12 -12.36 12 -11 12 C-11 12.66 -11 13.32 -11 14 C-6.83861737 14.08159574 -3.0527516 13.98248524 1 13 C0.67 11.68 0.34 10.36 0 9 C-0.66 9 -1.32 9 -2 9 C-2 9.66 -2 10.32 -2 11 C-6 11 -10 11 -14 11 C-13.67 8.69 -13.34 6.38 -13 4 C-10.33333333 4 -7.66666667 4 -5 4 C-5 3.01 -5 2.02 -5 1 C-4.34 1 -3.68 1 -3 1 C-3 3.31 -3 5.62 -3 8 C-2.34 8 -1.68 8 -1 8 C-1.0309375 6.2984375 -1.0309375 6.2984375 -1.0625 4.5625 C-1 1 -1 1 0 0 Z " fill="#0167B3" transform="translate(148,76)"/>
<path d="M0 0 C4.455 0.99 4.455 0.99 9 2 C8.34 2.66 7.68 3.32 7 4 C6.01 4 5.02 4 4 4 C4.97453125 5.24716797 4.97453125 5.24716797 5.96875 6.51953125 C6.81287761 7.61689714 7.65660698 8.71456944 8.5 9.8125 C8.92925781 10.35970703 9.35851562 10.90691406 9.80078125 11.47070312 C13 15.66015625 13 15.66015625 13 19 C13.99 19.33 14.98 19.66 16 20 C17.2063366 25.22745859 16.75612577 29.76528314 16 35 C18.31 35 20.62 35 23 35 C19.87378374 38.39417765 17.43458973 40.6062718 13 42 C12.67 41.34 12.34 40.68 12 40 C11.01 40.495 11.01 40.495 10 41 C9.67 40.01 9.34 39.02 9 38 C9.99 38 10.98 38 12 38 C11.505 34.535 11.505 34.535 11 31 C10.18595703 31.433125 10.18595703 31.433125 9.35546875 31.875 C8.64003906 32.24625 7.92460938 32.6175 7.1875 33 C6.47980469 33.37125 5.77210937 33.7425 5.04296875 34.125 C3 35 3 35 0 35 C0 34.01 0 33.02 0 32 C-0.7425 31.896875 -1.485 31.79375 -2.25 31.6875 C-5.21722987 30.94569253 -6.80552883 30.11319446 -9 28 C-9 27.01 -9 26.02 -9 25 C-3.74285714 21 -3.74285714 21 -1 21 C-1 20.01 -1 19.02 -1 18 C-1.55429688 18.433125 -2.10859375 18.86625 -2.6796875 19.3125 C-3.40414062 19.869375 -4.12859375 20.42625 -4.875 21 C-5.59429687 21.556875 -6.31359375 22.11375 -7.0546875 22.6875 C-9 24 -9 24 -11 24 C-11.33 24.99 -11.66 25.98 -12 27 C-13.98 27.33 -15.96 27.66 -18 28 C-17.34 28.66 -16.68 29.32 -16 30 C-16.804375 30.185625 -17.60875 30.37125 -18.4375 30.5625 C-23.31923861 32.53232435 -26.97673753 35.65622186 -31 39 C-31 38.01 -31 37.02 -31 36 C-31.62599617 34.31763529 -32.28752268 32.6476038 -33 31 C-31.125 29.9375 -31.125 29.9375 -29 29 C-28.34 29.33 -27.68 29.66 -27 30 C-27 29.01 -27 28.02 -27 27 C-26.030625 26.360625 -25.06125 25.72125 -24.0625 25.0625 C-20.94145355 23.34929406 -20.94145355 23.34929406 -20.0625 20.9375 C-19.88083901 18.77973272 -19.88083901 18.77973272 -21 16 C-20.01 15.67 -19.02 15.34 -18 15 C-16.62804426 13.70644173 -15.28817344 12.37701298 -14 11 C-14.185625 12.0725 -14.37125 13.145 -14.5625 14.25 C-14.9304568 17.40391546 -15.04465343 19.09818492 -14 22 C-12.68 22 -11.36 22 -10 22 C-10 21.34 -10 20.68 -10 20 C-10.66 19.67 -11.32 19.34 -12 19 C-11.34 19 -10.68 19 -10 19 C-10.103125 18.2575 -10.20625 17.515 -10.3125 16.75 C-10 14 -10 14 -7.75 11.6875 C-5 10 -5 10 -1 10 C0.89661743 8.85353452 0.89661743 8.85353452 2 7 C1.8237956 4.96128755 1.8237956 4.96128755 1 3 C0.505 1.515 0.505 1.515 0 0 Z " fill="#0077C0" transform="translate(76,87)"/>
<path d="M0 0 C4.77257361 3.27262191 7.14516739 7.12174216 10 12 C10.99 13.485 10.99 13.485 12 15 C12.33 14.484375 12.66 13.96875 13 13.4375 C15.6757418 11.51431058 17.72382343 11.81493121 20.90087891 12.28442383 C24.86315274 13.63513616 26.82835841 16.82409161 29.1875 20.125 C29.68185547 20.77726562 30.17621094 21.42953125 30.68554688 22.1015625 C32.64536187 24.70432075 34.54372533 27.34437279 36.40478516 30.01855469 C38.69358938 33.55232611 38.69358938 33.55232611 42 36 C42 36.99 42 37.98 42 39 C38.25040783 39.14528105 34.50153895 39.23406281 30.75 39.3125 C29.68652344 39.35439453 28.62304688 39.39628906 27.52734375 39.43945312 C19.67797947 39.5628708 19.67797947 39.5628708 16.4921875 36.91796875 C15.75355469 35.47357422 15.75355469 35.47357422 15 34 C14.38898438 32.88625 13.77796875 31.7725 13.1484375 30.625 C12.55104831 29.41974111 11.95996271 28.21133871 11.375 27 C11.0759375 26.39671875 10.776875 25.7934375 10.46875 25.171875 C8.82848195 21.83327632 7.32907861 18.47402726 6 15 C5.34 15 4.68 15 4 15 C0.95842058 9.77228537 -0.50610724 6.07328688 0 0 Z " fill="#002465" transform="translate(116,141)"/>
<path d="M0 0 C0 1.98 0 3.96 0 6 C-0.66 6 -1.32 6 -2 6 C-2.09796875 7.04800781 -2.1959375 8.09601563 -2.296875 9.17578125 C-2.44697127 10.55479073 -2.59806522 11.93369187 -2.75 13.3125 C-2.8428125 14.34793945 -2.8428125 14.34793945 -2.9375 15.40429688 C-3.54031788 20.60360108 -3.54031788 20.60360108 -6.04296875 22.76171875 C-6.68878906 23.17035156 -7.33460937 23.57898438 -8 24 C-8.37400786 26.32716 -8.70764733 28.66117862 -9 31 C-10.2355957 32.70043945 -10.2355957 32.70043945 -12 34 C-14.17651367 34.34057617 -14.17651367 34.34057617 -16.66796875 34.29296875 C-17.56064453 34.28330078 -18.45332031 34.27363281 -19.37304688 34.26367188 C-20.76620117 34.2259668 -20.76620117 34.2259668 -22.1875 34.1875 C-23.12787109 34.17396484 -24.06824219 34.16042969 -25.03710938 34.14648438 C-27.35865038 34.11113096 -29.67903653 34.06178674 -32 34 C-32 33.34 -32 32.68 -32 32 C-31.34 32 -30.68 32 -30 32 C-29.731875 31.29875 -29.46375 30.5975 -29.1875 29.875 C-28 27 -28 27 -26.3125 24 C-24.86798016 20.69824037 -24.91127386 19.36515352 -26 16 C-27.65 16.33 -29.3 16.66 -31 17 C-29.75 14.5 -29.75 14.5 -28 12 C-26.68 12 -25.36 12 -24 12 C-23.67 11.01 -23.34 10.02 -23 9 C-22.67 9.33 -22.34 9.66 -22 10 C-21.34 9.34 -20.68 8.68 -20 8 C-20 8.66 -20 9.32 -20 10 C-18.68 9.67 -17.36 9.34 -16 9 C-16 9.66 -16 10.32 -16 11 C-16.66 11 -17.32 11 -18 11 C-18.98120464 14.05263664 -18.98120464 15.94736336 -18 19 C-17.01 19 -16.02 19 -15 19 C-14.525625 18.505 -14.05125 18.01 -13.5625 17.5 C-12 16 -12 16 -8 16 C-8.08121094 15.26394531 -8.16242187 14.52789062 -8.24609375 13.76953125 C-8.75462215 5.9132863 -8.75462215 5.9132863 -6.4765625 3.15625 C-1.98074128 0 -1.98074128 0 0 0 Z " fill="#006097" transform="translate(72,146)"/>
<path d="M0 0 C0.99 0.33 1.98 0.66 3 1 C4.89584586 1.01966062 6.79237381 0.99331037 8.6875 0.9375 C12.503969 0.89135164 15.82406649 1.0241007 19.5 2.0625 C23.07791796 3.32426596 23.07791796 3.32426596 27 2 C27 14.21 27 26.42 27 39 C24 39 24 39 22.25 37.3125 C21 35 21 35 21.3125 32.25 C21.539375 31.5075 21.76625 30.765 22 30 C22.99 30 23.98 30 25 30 C24.2265625 29.13375 24.2265625 29.13375 23.4375 28.25 C22 26 22 26 22.3125 23.75 C22.539375 23.1725 22.76625 22.595 23 22 C22.34 21.67 21.68 21.34 21 21 C22.32 21 23.64 21 25 21 C25 19.68 25 18.36 25 17 C24.2575 17.33 23.515 17.66 22.75 18 C20 19 20 19 16 19 C16 18.01 16 17.02 16 16 C15.3503125 16.99 15.3503125 16.99 14.6875 18 C10.48218589 21.12953609 6.07250734 20.31484528 1 20 C0.67 19.34 0.34 18.68 0 18 C0.99 18 1.98 18 3 18 C3.33 17.01 3.66 16.02 4 15 C4.66 15 5.32 15 6 15 C5.57476184 13.39253944 5.13429874 11.78910164 4.6875 10.1875 C4.44386719 9.29417969 4.20023438 8.40085937 3.94921875 7.48046875 C2.96958544 4.92052162 1.96629339 3.8341056 0 2 C0 1.34 0 0.68 0 0 Z " fill="#01438F" transform="translate(153,83)"/>
<path d="M0 0 C4.55384615 -0.36923077 4.55384615 -0.36923077 6.8125 1.5 C7.204375 1.995 7.59625 2.49 8 3 C7.4740625 3.8971875 7.4740625 3.8971875 6.9375 4.8125 C5.66695302 7.10813214 5.66695302 7.10813214 7 10 C9.43276386 11.18519265 11.28017286 12 14 12 C14.66 11.67 15.32 11.34 16 11 C16 17.6 16 24.2 16 31 C10.39 31 4.78 31 -1 31 C-1 28.36 -1 25.72 -1 23 C-2.13213603 20.82248947 -2.13213603 20.82248947 -3.875 19.3125 C-6.42653911 16.68874752 -7.91805966 14.57040313 -9 11 C-8.01 11.33 -7.02 11.66 -6 12 C-5.66666667 13.33333333 -5.33333333 14.66666667 -5 16 C-4.01 16.33 -3.02 16.66 -2 17 C-0.29413425 18.62652316 1.3777546 20.29006566 3 22 C2.67 21.2575 2.34 20.515 2 19.75 C1 17 1 17 1 13 C-0.65 12.67 -2.3 12.34 -4 12 C-4.625 9.625 -4.625 9.625 -5 7 C-4.34 6.34 -3.68 5.68 -3 5 C-2.21625 5.99 -1.4325 6.98 -0.625 8 C0.24125 8.99 1.1075 9.98 2 11 C2.66 11 3.32 11 4 11 C3.525625 10.67 3.05125 10.34 2.5625 10 C0.14208385 6.90186733 0.31801083 3.87973208 0 0 Z " fill="#003458" transform="translate(164,149)"/>
<path d="M0 0 C0.33 0.66 0.66 1.32 1 2 C1.66 2 2.32 2 3 2 C3 2.99 3 3.98 3 5 C3.99 5 4.98 5 6 5 C7.38671875 6.6796875 7.38671875 6.6796875 8.6875 8.875 C9.12449219 9.59429687 9.56148437 10.31359375 10.01171875 11.0546875 C11 13 11 13 11 15 C11.99 15 12.98 15 14 15 C14.433125 16.11375 14.86625 17.2275 15.3125 18.375 C16.69911119 22.17512334 16.69911119 22.17512334 20 24 C20 24.66 20 25.32 20 26 C20.66 26 21.32 26 22 26 C21.44271087 22.65626525 20.64826111 19.96687001 19 17 C22.1489715 18.36911804 24.0478487 19.8752136 26.25 22.5 C26.77078125 23.1084375 27.2915625 23.716875 27.828125 24.34375 C29 26 29 26 29 28 C29.66 28 30.32 28 31 28 C32.65625 29.828125 32.65625 29.828125 34.5 32.25 C35.1084375 33.03890625 35.716875 33.8278125 36.34375 34.640625 C37.79739033 36.71137679 38.94765743 38.7058932 40 41 C38.824375 41.495 38.824375 41.495 37.625 42 C33.84142777 44.8827217 33.83052742 47.39434793 33 52 C32.67 52 32.34 52 32 52 C31.67 53.65 31.34 55.3 31 57 C30.34 56.67 29.68 56.34 29 56 C28.855625 54.9275 28.71125 53.855 28.5625 52.75 C27.98153908 48.8769272 27.02017544 47.26336033 25 44 C24.21501409 41.64504226 23.5089301 39.28210582 22.84375 36.890625 C22.5653125 36.26671875 22.286875 35.6428125 22 35 C20.515 34.505 20.515 34.505 19 34 C18.58992699 32.39388072 18.18322299 30.78683079 17.79296875 29.17578125 C15.94372445 24.10174639 12.22778883 19.20600116 8.40234375 15.41796875 C6.46007335 13.45405745 5.30171877 11.11371698 3.984375 8.70703125 C2.96430724 6.84769059 2.96430724 6.84769059 1.25 4.75 C0 3 0 3 0 0 Z " fill="#084799" transform="translate(82,92)"/>
<path d="M0 0 C6.11181853 1.22236371 8.23421876 3.21644004 12 8 C10.35 8.33 8.7 8.66 7 9 C7 8.34 7 7.68 7 7 C6.34 7 5.68 7 5 7 C5.26676204 8.98491642 5.26676204 8.98491642 6 11 C6.99 11.33 7.98 11.66 9 12 C10.52160014 15.6037898 11 18.05220686 11 22 C10.34 22 9.68 22 9 22 C8.40929986 23.94603274 8.40929986 23.94603274 8 26 C9.05270463 27.15811388 9.05270463 27.15811388 11 28 C10.67 28.66 10.34 29.32 10 30 C6 28 2 26 -2 24 C-1.49287967 20.28111761 -0.88391785 17.26545761 1 14 C0.01 14.66 -0.98 15.32 -2 16 C-2.103125 16.61875 -2.20625 17.2375 -2.3125 17.875 C-3.41529305 21.28363305 -5.99959987 22.28548564 -9 24 C-9.66 24 -10.32 24 -11 24 C-11 23.34 -11 22.68 -11 22 C-10.34 22 -9.68 22 -9 22 C-8.67 19.69 -8.34 17.38 -8 15 C-9.1446875 15.2784375 -9.1446875 15.2784375 -10.3125 15.5625 C-13 16 -13 16 -16 15 C-15.67 14.01 -15.34 13.02 -15 12 C-13.68 12 -12.36 12 -11 12 C-11 12.66 -11 13.32 -11 14 C-6.83861737 14.08159574 -3.0527516 13.98248524 1 13 C0.67 11.68 0.34 10.36 0 9 C-0.66 9 -1.32 9 -2 9 C-2 9.66 -2 10.32 -2 11 C-6 11 -10 11 -14 11 C-13.67 8.69 -13.34 6.38 -13 4 C-10.33333333 4 -7.66666667 4 -5 4 C-5 3.01 -5 2.02 -5 1 C-4.34 1 -3.68 1 -3 1 C-3 3.31 -3 5.62 -3 8 C-2.34 8 -1.68 8 -1 8 C-1.020625 6.865625 -1.04125 5.73125 -1.0625 4.5625 C-1 1 -1 1 0 0 Z " fill="#0156A6" transform="translate(148,76)"/>
<path d="M0 0 C1.62490954 -0.02698189 3.24994633 -0.04638757 4.875 -0.0625 C5.77992188 -0.07410156 6.68484375 -0.08570312 7.6171875 -0.09765625 C10 0 10 0 12 1 C12 1.66 12 2.32 12 3 C14.475 3.495 14.475 3.495 17 4 C17 4.66 17 5.32 17 6 C18.65 5.67 20.3 5.34 22 5 C21.01 5.495 21.01 5.495 20 6 C20 6.99 20 7.98 20 9 C20.78375 9.0825 21.5675 9.165 22.375 9.25 C25 10 25 10 26.3125 12.0625 C26.539375 12.701875 26.76625 13.34125 27 14 C27.99 14 28.98 14 30 14 C30 15.32 30 16.64 30 18 C25.07262981 19.97094808 21.21979128 20.1799928 16 20 C16 19.34 16 18.68 16 18 C15.01 17.67 14.02 17.34 13 17 C13 14.69 13 12.38 13 10 C12.01 10.33 11.02 10.66 10 11 C10 10.34 10 9.68 10 9 C9.34 9 8.68 9 8 9 C8 11.64 8 14.28 8 17 C6.35 17 4.7 17 3 17 C1.66667905 14.3333581 2.32897967 12.83319697 3 10 C0.03 9.505 0.03 9.505 -3 9 C-4.125 5.25 -4.125 5.25 -3 3 C-2.01 3 -1.02 3 0 3 C0 2.01 0 1.02 0 0 Z " fill="#013567" transform="translate(150,108)"/>
<path d="M0 0 C0.99 0.33 1.98 0.66 3 1 C2.67 3.97 2.34 6.94 2 10 C3.32 9.34 4.64 8.68 6 8 C9.875 10.625 9.875 10.625 11 14 C13.59345253 13.56775791 15.76366233 13.11816884 18.125 11.9375 C20 11 20 11 23 11 C23 11.99 23 12.98 23 14 C22.34 14 21.68 14 21 14 C20.30840599 15.84725052 20.30840599 15.84725052 20 18 C20.66 18.99 21.32 19.98 22 21 C22 22.98 22 24.96 22 27 C14.74 27 7.48 27 0 27 C0 18.09 0 9.18 0 0 Z M7 11 C6.01 12.485 6.01 12.485 5 14 C5.99 14 6.98 14 8 14 C7.67 13.01 7.34 12.02 7 11 Z " fill="#003D62" transform="translate(0,153)"/>
<path d="M0 0 C1.32 0 2.64 0 4 0 C4 2.31 4 4.62 4 7 C4.66 7 5.32 7 6 7 C6 7.99 6 8.98 6 10 C6.66 10 7.32 10 8 10 C8.33 10.99 8.66 11.98 9 13 C9.99 13.33 10.98 13.66 12 14 C12.598125 14.639375 13.19625 15.27875 13.8125 15.9375 C15.91568703 18.22904505 15.91568703 18.22904505 19.125 18.9375 C22 20 22 20 23.375 22.375 C24 25 24 25 24 29 C19.78295862 27.43813282 17.7421201 24.44522782 15 21 C14.01174968 19.98838678 13.01459618 18.98518759 12 18 C12.93307421 19.44037669 13.87165077 20.87718985 14.8125 22.3125 C15.33457031 23.11300781 15.85664063 23.91351563 16.39453125 24.73828125 C17.88340907 26.99764883 17.88340907 26.99764883 19.68359375 28.56640625 C21 30 21 30 21.25 33.625 C21 37 21 37 20 38 C18.33382885 38.04063832 16.66611905 38.042721 15 38 C15 37.01 15 36.02 15 35 C14.01 34.67 13.02 34.34 12 34 C10.1824546 31.844706 8.48389312 29.7001991 6.8125 27.4375 C6.34908203 26.82197266 5.88566406 26.20644531 5.40820312 25.57226562 C4.26576775 24.05294435 3.13203843 22.52708373 2 21 C2.33 20.34 2.66 19.68 3 19 C5.475 19.99 5.475 19.99 8 21 C8 21.66 8 22.32 8 23 C8.66 23 9.32 23 10 23 C7.05817944 17.01691341 7.05817944 17.01691341 2.75 12.0625 C-0.15969922 8.63321164 0.16660475 4.36504434 0 0 Z " fill="#003E6C" transform="translate(143,142)"/>
<path d="M0 0 C7.47434287 0.65245791 7.47434287 0.65245791 14.875 -0.3125 C18.713183 -0.85359723 20.52735664 0.10669024 23.625 2.375 C25.65625 4.01953125 25.65625 4.01953125 27.125 5.5625 C27.125 6.2225 27.125 6.8825 27.125 7.5625 C24.20840625 7.73053421 21.29173658 7.89697967 18.375 8.0625 C17.55 8.11019531 16.725 8.15789062 15.875 8.20703125 C15.07578125 8.25214844 14.2765625 8.29726562 13.453125 8.34375 C12.7199707 8.38564453 11.98681641 8.42753906 11.23144531 8.47070312 C7.86404662 8.61745114 4.49519859 8.5625 1.125 8.5625 C0.795 9.8825 0.465 11.2025 0.125 12.5625 C-2.185 12.5625 -4.495 12.5625 -6.875 12.5625 C-6.875 13.2225 -6.875 13.8825 -6.875 14.5625 C-7.865 14.2325 -8.855 13.9025 -9.875 13.5625 C-9.875 12.5725 -9.875 11.5825 -9.875 10.5625 C-9.215 10.5625 -8.555 10.5625 -7.875 10.5625 C-8.205 7.2625 -8.535 3.9625 -8.875 0.5625 C-5.87560661 -0.9371967 -3.31353565 -0.27899832 0 0 Z " fill="#34B3ED" transform="translate(46.875,80.4375)"/>
<path d="M0 0 C0 0.66 0 1.32 0 2 C0.99 2.33 1.98 2.66 3 3 C3.03867187 3.96099609 3.03867187 3.96099609 3.078125 4.94140625 C3.48516147 11.14871248 4.74652689 14.75246272 8 20 C8 21.32 8 22.64 8 24 C6.08404518 24.33740085 4.16720278 24.66976412 2.25 25 C1.18265625 25.185625 0.1153125 25.37125 -0.984375 25.5625 C-4 26 -4 26 -8 26 C-8 19.4 -8 12.8 -8 6 C-7.34 6 -6.68 6 -6 6 C-5.67 5.34 -5.34 4.68 -5 4 C-4.34 4.33 -3.68 4.66 -3 5 C-3.33 3.68 -3.66 2.36 -4 1 C-2 0 -2 0 0 0 Z " fill="#025FAB" transform="translate(8,80)"/>
<path d="M0 0 C3.37655185 3.92921617 5.76184874 7.99344139 8.125 12.5625 C8.47175781 13.22185547 8.81851563 13.88121094 9.17578125 14.56054688 C10.81800054 17.69083077 12.41910067 20.83820133 14 24 C7.73 24 1.46 24 -5 24 C-10 11.25 -10 11.25 -10 9 C-5.125 10.875 -5.125 10.875 -4 12 C-3.896875 11.360625 -3.79375 10.72125 -3.6875 10.0625 C-3.460625 9.381875 -3.23375 8.70125 -3 8 C-2.01 7.67 -1.02 7.34 0 7 C0 4.69 0 2.38 0 0 Z " fill="#004E7E" transform="translate(121,156)"/>
<path d="M0 0 C0 0.66 0 1.32 0 2 C2.31 1.34 4.62 0.68 7 0 C6.45276317 3.37462715 5.9451 5.08235 4 8 C5.98 7.67 7.96 7.34 10 7 C9.67 9.31 9.34 11.62 9 14 C7.7934375 14.3403125 7.7934375 14.3403125 6.5625 14.6875 C5.716875 15.120625 4.87125 15.55375 4 16 C3.30086039 18.53644637 3.30086039 18.53644637 3 21 C3.62648438 20.6390625 4.25296875 20.278125 4.8984375 19.90625 C6.12433594 19.21015625 6.12433594 19.21015625 7.375 18.5 C8.18710937 18.0359375 8.99921875 17.571875 9.8359375 17.09375 C12 16 12 16 14 16 C14 16.66 14 17.32 14 18 C15.32 18 16.64 18 18 18 C18.33 17.01 18.66 16.02 19 15 C19.33 15 19.66 15 20 15 C19.67 17.31 19.34 19.62 19 22 C13.06 22 7.12 22 1 22 C-1.5 12 -1.5 12 0 9 C0.66 9 1.32 9 2 9 C2 8.01 2 7.02 2 6 C1.48050781 6.30035156 0.96101563 6.60070312 0.42578125 6.91015625 C-5.34133791 10.05488851 -5.34133791 10.05488851 -9 9.75 C-9.66 9.5025 -10.32 9.255 -11 9 C-10.74682781 5.58217544 -9.71625376 4.72255923 -7.1875 2.25 C-4 0 -4 0 0 0 Z " fill="#004570" transform="translate(21,158)"/>
<path d="M0 0 C6.59706499 4.52370171 9.51146277 11.02292555 13 18 C13.7734375 18.99 13.7734375 18.99 14.5625 20 C16 22 16 22 17 25.1875 C17.33 26.115625 17.66 27.04375 18 28 C18.99 28.33 19.98 28.66 21 29 C21 29.66 21 30.32 21 31 C21.61875 31.20625 22.2375 31.4125 22.875 31.625 C25.84653645 33.54775888 26.13024659 35.66594527 27 39 C25.14375 39.1546875 25.14375 39.1546875 23.25 39.3125 C22.55390625 39.37050781 21.8578125 39.42851562 21.140625 39.48828125 C17.80059369 38.7264128 16.87647817 36.79228923 15 34 C13.72575816 31.67733133 12.52465795 29.38070762 11.375 27 C11.0759375 26.39671875 10.776875 25.7934375 10.46875 25.171875 C8.82848195 21.83327632 7.32907861 18.47402726 6 15 C5.34 15 4.68 15 4 15 C0.95842058 9.77228537 -0.50610724 6.07328688 0 0 Z " fill="#011A3C" transform="translate(116,141)"/>
<path d="M0 0 C0.99 0 1.98 0 3 0 C3 12.21 3 24.42 3 37 C0 37 0 37 -1.75 35.3125 C-3 33 -3 33 -2.6875 30.25 C-2.460625 29.5075 -2.23375 28.765 -2 28 C-1.01 28 -0.02 28 1 28 C0.2265625 27.13375 0.2265625 27.13375 -0.5625 26.25 C-2 24 -2 24 -1.6875 21.75 C-1.460625 21.1725 -1.23375 20.595 -1 20 C-1.66 19.67 -2.32 19.34 -3 19 C-1.68 19 -0.36 19 1 19 C1 17.68 1 16.36 1 15 C0.236875 15.350625 -0.52625 15.70125 -1.3125 16.0625 C-4 17 -4 17 -7 16 C-6.01 15.67 -5.02 15.34 -4 15 C-4 14.34 -4 13.68 -4 13 C-4.639375 12.814375 -5.27875 12.62875 -5.9375 12.4375 C-8 11 -8 11 -8.75 7.375 C-8.8325 6.26125 -8.915 5.1475 -9 4 C-8.01 4 -7.02 4 -6 4 C-6 3.34 -6 2.68 -6 2 C-4.7934375 1.7834375 -4.7934375 1.7834375 -3.5625 1.5625 C-1.07896294 1.25864751 -1.07896294 1.25864751 0 0 Z " fill="#013679" transform="translate(177,85)"/>
<path d="M0 0 C2.82572058 1.03293147 3.82978305 1.67952982 5.265625 4.3828125 C5.59046875 5.28773437 5.9153125 6.19265625 6.25 7.125 C6.58515625 8.03507812 6.9203125 8.94515625 7.265625 9.8828125 C7.62914062 10.93082031 7.62914062 10.93082031 8 12 C8.99 12 9.98 12 11 12 C11.33 12 11.66 12 12 12 C11.67 15.96 11.34 19.92 11 24 C9.35 24.33 7.7 24.66 6 25 C6.33 23.02 6.66 21.04 7 19 C4.11424181 19.39803561 3.17810487 19.79009069 1.25 22.0625 C0.8375 22.701875 0.425 23.34125 0 24 C-1.6415049 20.7169902 -0.51888624 17.57454967 0 14 C-0.66 13.67 -1.32 13.34 -2 13 C-2.6328125 10.71484375 -2.6328125 10.71484375 -3.125 7.9375 C-3.29257813 7.01839844 -3.46015625 6.09929687 -3.6328125 5.15234375 C-3.75398437 4.44207031 -3.87515625 3.73179688 -4 3 C-2.68 2.01 -1.36 1.02 0 0 Z " fill="#0157AE" transform="translate(15,71)"/>
<path d="M0 0 C6.38983051 -0.49152542 6.38983051 -0.49152542 9.25 1.8125 C9.8275 2.534375 10.405 3.25625 11 4 C11.5775 4.5775 12.155 5.155 12.75 5.75 C13.1625 6.1625 13.575 6.575 14 7 C14.33 5.68 14.66 4.36 15 3 C15.66 3 16.32 3 17 3 C16.98839844 3.61488281 16.97679687 4.22976562 16.96484375 4.86328125 C16.95582031 5.67152344 16.94679687 6.47976562 16.9375 7.3125 C16.92589844 8.11300781 16.91429687 8.91351563 16.90234375 9.73828125 C16.90342145 12.16861334 16.90342145 12.16861334 18 15 C16.906875 15.268125 15.81375 15.53625 14.6875 15.8125 C11.2149991 16.930763 10.28172966 17.43744207 8 20 C7.46375 18.824375 6.9275 17.64875 6.375 16.4375 C4.19134774 12.03092116 1.34840697 8.5716341 -2 5 C-1.34 3.35 -0.68 1.7 0 0 Z " fill="#023998" transform="translate(118,136)"/>
<path d="M0 0 C0.66 0 1.32 0 2 0 C2 0.66 2 1.32 2 2 C3.98 1.67 5.96 1.34 8 1 C8 1.66 8 2.32 8 3 C8.66 2.67 9.32 2.34 10 2 C13.18884601 1.48088553 15.20117305 1.47972193 17.94921875 3.26953125 C19.75634665 4.7760821 21.44950368 6.22931485 23 8 C23 8.66 23 9.32 23 10 C17.19233704 11.5056904 12.0018137 12.21824777 6 12 C6 11.01 6 10.02 6 9 C5.01 9 4.02 9 3 9 C3 9.66 3 10.32 3 11 C2.01 11 1.02 11 0 11 C0 7.37 0 3.74 0 0 Z " fill="#033054" transform="translate(0,127)"/>
<path d="M0 0 C0.33 1.65 0.66 3.3 1 5 C2.98 4.34 4.96 3.68 7 3 C7.33 3.99 7.66 4.98 8 6 C7.236875 6.45375 6.47375 6.9075 5.6875 7.375 C1.32371503 9.84074655 1.32371503 9.84074655 -1.3125 13.9375 C-3.36364005 17.65993935 -5.12736306 18.43446592 -9 20 C-9.66 20.33 -10.32 20.66 -11 21 C-13.125 20.5625 -13.125 20.5625 -15 20 C-15 19.34 -15 18.68 -15 18 C-15.99 18.33 -16.98 18.66 -18 19 C-16.54545455 15.24242424 -16.54545455 15.24242424 -14.3125 14.25 C-11.19853938 13.91335561 -8.12892809 13.93982831 -5 14 C-5 12.35 -5 10.7 -5 9 C-6.32 8.34 -7.64 7.68 -9 7 C-8.3125 4.625 -8.3125 4.625 -7 2 C-4.52858057 0.7025048 -2.79207427 0 0 0 Z " fill="#0183CF" transform="translate(55,87)"/>
<path d="M0 0 C0.66 0 1.32 0 2 0 C2.1875 3.3125 2.1875 3.3125 2 7 C1.02149805 8.02104551 0.02019573 9.0206121 -1 10 C-1.165 11.155 -1.33 12.31 -1.5 13.5 C-2 17 -2 17 -3.11328125 18.70703125 C-5.94358212 20.64663702 -8.30632702 20.28793088 -11.6875 20.1875 C-13.45673828 20.14689453 -13.45673828 20.14689453 -15.26171875 20.10546875 C-16.16535156 20.07066406 -17.06898437 20.03585938 -18 20 C-18 19.34 -18 18.68 -18 18 C-17.01 17.67 -16.02 17.34 -15 17 C-13.77030122 13.48809191 -13.77030122 13.48809191 -13 10 C-11.35 10 -9.7 10 -8 10 C-7.67 9.34 -7.34 8.68 -7 8 C-6.34 8 -5.68 8 -5 8 C-4.67 7.01 -4.34 6.02 -4 5 C-3.34 5 -2.68 5 -2 5 C-2 4.34 -2 3.68 -2 3 C-1.34 3 -0.68 3 0 3 C0 2.01 0 1.02 0 0 Z " fill="#005182" transform="translate(65,160)"/>
<path d="M0 0 C1.32 1.65 2.64 3.3 4 5 C3.01 5.33 2.02 5.66 1 6 C0.67 8.31 0.34 10.62 0 13 C1.32 13.66 2.64 14.32 4 15 C3.67 17.31 3.34 19.62 3 22 C0.5 20.625 0.5 20.625 -2 19 C-2 18.34 -2 17.68 -2 17 C-3.32 16.67 -4.64 16.34 -6 16 C-6 15.01 -6 14.02 -6 13 C-6.66 13 -7.32 13 -8 13 C-8.33 10.03 -8.66 7.06 -9 4 C-7.68 4.33 -6.36 4.66 -5 5 C-5 4.34 -5 3.68 -5 3 C-2.5 1.375 -2.5 1.375 0 0 Z " fill="#004E84" transform="translate(157,139)"/>
<path d="M0 0 C-0.309375 0.886875 -0.61875 1.77375 -0.9375 2.6875 C-2.03899395 6.12156938 -3 9.3789153 -3 13 C-2.03886134 14.36161311 -1.04115841 15.69855198 0 17 C-0.66 17 -1.32 17 -2 17 C-2 17.99 -2 18.98 -2 20 C-4 20 -4 20 -6.5625 17.875 C-9.21634296 14.74482626 -9.71915428 13.02545534 -10 9 C-10.99 9 -11.98 9 -13 9 C-14.0625 6.625 -14.0625 6.625 -15 4 C-14.67 3.34 -14.34 2.68 -14 2 C-10.9375 1.375 -10.9375 1.375 -8 1 C-8 2.32 -8 3.64 -8 5 C-7.236875 4.175 -6.47375 3.35 -5.6875 2.5 C-3 0 -3 0 0 0 Z " fill="#0669B5" transform="translate(106,98)"/>
<path d="M0 0 C0.99 -0.33 1.98 -0.66 3 -1 C3 -0.01 3 0.98 3 2 C1.68 2 0.36 2 -1 2 C-1.33 2.99 -1.66 3.98 -2 5 C-2 4.34 -2 3.68 -2 3 C-2.99 3.33 -3.98 3.66 -5 4 C-5.33 5.65 -5.66 7.3 -6 9 C-4.72125 8.896875 -3.4425 8.79375 -2.125 8.6875 C-1.40570313 8.62949219 -0.68640625 8.57148437 0.0546875 8.51171875 C2.39519216 8.12606964 2.39519216 8.12606964 4 5 C4 6.32 4 7.64 4 9 C4.66 9 5.32 9 6 9 C6 8.34 6 7.68 6 7 C6.66 7 7.32 7 8 7 C8.33 8.32 8.66 9.64 9 11 C4.53763531 12.80619523 1.68965706 13.11658501 -3 12 C-3 11.34 -3 10.68 -3 10 C-4.97536745 10.34786708 -4.97536745 10.34786708 -7 11 C-7.33 11.66 -7.66 12.32 -8 13 C-10.3140622 13.73075648 -12.64828869 14.40138258 -15 15 C-15.33 13.68 -15.66 12.36 -16 11 C-14.02 10.34 -12.04 9.68 -10 9 C-9.67 7.02 -9.34 5.04 -9 3 C-9.66 3 -10.32 3 -11 3 C-11 2.34 -11 1.68 -11 1 C-6.78783447 -0.66527474 -4.37346389 -1.06381554 0 0 Z " fill="#0184D5" transform="translate(140,78)"/>
<path d="M0 0 C0.66 0 1.32 0 2 0 C2 0.99 2 1.98 2 3 C2.61875 3.12375 3.2375 3.2475 3.875 3.375 C6 4 6 4 8 6 C8.268125 6.94875 8.53625 7.8975 8.8125 8.875 C10.21579226 12.56787436 11.88507441 13.68377328 15 16 C16.28317892 19.84953676 16.06643637 22.94738135 16 27 C15.67 27 15.34 27 15 27 C14.67 28.65 14.34 30.3 14 32 C13.34 31.67 12.68 31.34 12 31 C11.7834375 29.39125 11.7834375 29.39125 11.5625 27.75 C10.98153908 23.8769272 10.02017544 22.26336033 8 19 C7.21501409 16.64504226 6.5089301 14.28210582 5.84375 11.890625 C5.5653125 11.26671875 5.286875 10.6428125 5 10 C4.01 9.67 3.02 9.34 2 9 C1.26953125 6.93359375 1.26953125 6.93359375 0.8125 4.4375 C0.65394531 3.61121094 0.49539062 2.78492187 0.33203125 1.93359375 C0.16767578 0.97646484 0.16767578 0.97646484 0 0 Z " fill="#02447E" transform="translate(99,117)"/>
<path d="M0 0 C3.90361488 1.30120496 4.27413748 2.74561431 6.1875 6.3125 C6.71730469 7.27800781 7.24710938 8.24351563 7.79296875 9.23828125 C9 12 9 12 9 16 C5.37 16.33 1.74 16.66 -2 17 C-1.67 15.68 -1.34 14.36 -1 13 C-1.99 13 -2.98 13 -4 13 C-4 12.34 -4 11.68 -4 11 C-4.66 11 -5.32 11 -6 11 C-6 10.34 -6 9.68 -6 9 C-5.01 9 -4.02 9 -3 9 C-3 8.34 -3 7.68 -3 7 C-2.34 7 -1.68 7 -1 7 C-0.67 4.69 -0.34 2.38 0 0 Z " fill="#012C72" transform="translate(7,88)"/>
<path d="M0 0 C0.721875 0.66 1.44375 1.32 2.1875 2 C2.1875 2.66 2.1875 3.32 2.1875 4 C-0.74955131 4.22155127 -3.68630363 4.42774197 -6.625 4.625 C-7.45837891 4.68945312 -8.29175781 4.75390625 -9.15039062 4.8203125 C-9.95283203 4.871875 -10.75527344 4.9234375 -11.58203125 4.9765625 C-12.68961792 5.05511475 -12.68961792 5.05511475 -13.81958008 5.13525391 C-15.8125 5 -15.8125 5 -18.8125 3 C-18.625 1.125 -18.625 1.125 -17.8125 -1 C-15.5625 -2.1875 -15.5625 -2.1875 -12.8125 -3 C-11.575 -3.37125 -11.575 -3.37125 -10.3125 -3.75 C-5.98246463 -4.18300354 -3.4626104 -2.46230073 0 0 Z " fill="#13AAE8" transform="translate(71.8125,84)"/>
<path d="M0 0 C5.08497336 -0.6226498 8.88626178 -0.66381518 13.0625 2.5625 C15.76024718 5.17925246 15.98266102 5.86779027 16.5 9.8125 C16 13 16 13 15 14 C13.33382885 14.04063832 11.66611905 14.042721 10 14 C10 13.01 10 12.02 10 11 C9.01 10.67 8.02 10.34 7 10 C5.17578125 7.96875 5.17578125 7.96875 3.3125 5.5 C2.68988281 4.6853125 2.06726563 3.870625 1.42578125 3.03125 C0 1 0 1 0 0 Z " fill="#003B63" transform="translate(148,166)"/>
<path d="M0 0 C1.59162079 5.57067277 2.20674944 10.21101581 2 16 C0.35 16 -1.3 16 -3 16 C-4.33332095 13.3333581 -3.67102033 11.83319697 -3 9 C-5.97 8.505 -5.97 8.505 -9 8 C-10.125 4.25 -10.125 4.25 -9 2 C-2.88888889 0 -2.88888889 0 0 0 Z " fill="#02275B" transform="translate(156,109)"/>
<path d="M0 0 C0.99 0.33 1.98 0.66 3 1 C9.08568662 1.23294845 9.08568662 1.23294845 15 0 C15 0.99 15 1.98 15 3 C15.66 3 16.32 3 17 3 C16.67 3.99 16.34 4.98 16 6 C13.17884816 7.07009208 11.09455459 7 8 7 C8 7.66 8 8.32 8 9 C6.68 9 5.36 9 4 9 C4 8.34 4 7.68 4 7 C2.02 7 0.04 7 -2 7 C-1.34 4.69 -0.68 2.38 0 0 Z " fill="#0099E0" transform="translate(108,81)"/>
<path d="M0 0 C-0.30798326 1.48011371 -0.621518 2.95907325 -0.9375 4.4375 C-1.11152344 5.26121094 -1.28554687 6.08492187 -1.46484375 6.93359375 C-2 9 -2 9 -3 10 C-5.18639453 10.07258946 -7.37500389 10.08373783 -9.5625 10.0625 C-11.35880859 10.04896484 -11.35880859 10.04896484 -13.19140625 10.03515625 C-14.11824219 10.02355469 -15.04507812 10.01195312 -16 10 C-16 8.35 -16 6.7 -16 5 C-15.40832031 4.80664062 -14.81664062 4.61328125 -14.20703125 4.4140625 C-10.78753552 3.28724661 -7.40160155 2.16234956 -4.0625 0.8125 C-2 0 -2 0 0 0 Z " fill="#002F4C" transform="translate(16,170)"/>
<path d="M0 0 C3.04386724 -0.08226668 5.07175348 0.02391783 8 1 C8.99 1 9.98 1 11 1 C11 2.32 11 3.64 11 5 C9.68 5 8.36 5 7 5 C7 5.66 7 6.32 7 7 C4.69 7 2.38 7 0 7 C0 7.66 0 8.32 0 9 C-0.99 9.33 -1.98 9.66 -3 10 C-3.66 10.66 -4.32 11.32 -5 12 C-5.59167969 11.77183594 -6.18335938 11.54367188 -6.79296875 11.30859375 C-12.78652961 9.0423002 -12.78652961 9.0423002 -19 10 C-19 9.01 -19 8.02 -19 7 C-18.01 7 -17.02 7 -16 7 C-16 6.34 -16 5.68 -16 5 C-15.01 5 -14.02 5 -13 5 C-13 5.99 -13 6.98 -13 8 C-12.35933594 7.855625 -11.71867188 7.71125 -11.05859375 7.5625 C-5.91959623 6.45964509 -1.25304157 5.77160689 4 6 C3.34 5.38125 2.68 4.7625 2 4.125 C0 2 0 2 0 0 Z " fill="#015D8B" transform="translate(19,131)"/>
<path d="M0 0 C0.309375 0.9590625 0.309375 0.9590625 0.625 1.9375 C1.89538209 4.34925077 1.89538209 4.34925077 5.125 4.75 C6.07375 4.8325 7.0225 4.915 8 5 C9 8 9 8 8 12 C4.04 12 0.08 12 -4 12 C-4.25 5.375 -4.25 5.375 -2 2 C-1.34 2 -0.68 2 0 2 C0 1.34 0 0.68 0 0 Z " fill="#035189" transform="translate(145,113)"/>
<path d="M0 0 C0.99 0.33 1.98 0.66 3 1 C2.34 4.3 1.68 7.6 1 11 C0.67 10.34 0.34 9.68 0 9 C-0.66 9 -1.32 9 -2 9 C-2 9.66 -2 10.32 -2 11 C-6 11 -10 11 -14 11 C-13.67 8.69 -13.34 6.38 -13 4 C-10.33333333 4 -7.66666667 4 -5 4 C-5 3.01 -5 2.02 -5 1 C-4.34 1 -3.68 1 -3 1 C-3 3.31 -3 5.62 -3 8 C-2.34 8 -1.68 8 -1 8 C-1.020625 6.865625 -1.04125 5.73125 -1.0625 4.5625 C-1 1 -1 1 0 0 Z " fill="#016AC3" transform="translate(148,76)"/>
<path d="M0 0 C3.00617269 3.00617269 2.59585316 5.82381598 3 10 C3.66 10 4.32 10 5 10 C4.25 16.625 4.25 16.625 2 20 C0.57741188 16.17679443 -0.24042276 13.08718695 0 9 C-0.66 8.67 -1.32 8.34 -2 8 C-2 7.34 -2 6.68 -2 6 C-2.99 6.66 -3.98 7.32 -5 8 C-5 8.99 -5 9.98 -5 11 C-6.65 11.33 -8.3 11.66 -10 12 C-10 10.68 -10 9.36 -10 8 C-9.34 8 -8.68 8 -8 8 C-8 7.01 -8 6.02 -8 5 C-7.01 5 -6.02 5 -5 5 C-5 4.34 -5 3.68 -5 3 C-4.01 2.67 -3.02 2.34 -2 2 C-1.34 2.33 -0.68 2.66 0 3 C0 2.01 0 1.02 0 0 Z " fill="#028CD0" transform="translate(10,74)"/>
<path d="M0 0 C0.33 0 0.66 0 1 0 C1.1953125 2.05078125 1.390625 4.1015625 1.5859375 6.15234375 C1.72257812 6.76207031 1.85921875 7.37179688 2 8 C2.66 8.33 3.32 8.66 4 9 C1.16569547 12.2542015 -0.68607774 13.5206753 -5 14 C-5.33 13.01 -5.66 12.02 -6 11 C-6.66 10.67 -7.32 10.34 -8 10 C-7.67 9.34 -7.34 8.68 -7 8 C-8.32 8.33 -9.64 8.66 -11 9 C-10.34 6.69 -9.68 4.38 -9 2 C-7.35 1.67 -5.7 1.34 -4 1 C-4.33 2.98 -4.66 4.96 -5 7 C-3.35 6.67 -1.7 6.34 0 6 C0 4.02 0 2.04 0 0 Z " fill="#017AC5" transform="translate(26,89)"/>
<path d="M0 0 C0.66 0 1.32 0 2 0 C2 2.31 2 4.62 2 7 C1.34 7 0.68 7 0 7 C-0.12375 7.804375 -0.2475 8.60875 -0.375 9.4375 C-0.684375 10.7059375 -0.684375 10.7059375 -1 12 C-1.99 12.495 -1.99 12.495 -3 13 C-2.49287967 9.28111761 -1.88391785 6.26545761 0 3 C-0.99 3.66 -1.98 4.32 -3 5 C-3.1546875 5.928125 -3.1546875 5.928125 -3.3125 6.875 C-4.41529305 10.28363305 -6.99959987 11.28548564 -10 13 C-10.66 13 -11.32 13 -12 13 C-12 12.34 -12 11.68 -12 11 C-11.34 11 -10.68 11 -10 11 C-9.67 8.69 -9.34 6.38 -9 4 C-10.1446875 4.2784375 -10.1446875 4.2784375 -11.3125 4.5625 C-14 5 -14 5 -17 4 C-16.67 3.01 -16.34 2.02 -16 1 C-14.68 1 -13.36 1 -12 1 C-12 1.66 -12 2.32 -12 3 C-7.83861737 3.08159574 -4.0527516 2.98248524 0 2 C0 1.34 0 0.68 0 0 Z " fill="#0169BC" transform="translate(149,87)"/>
<path d="M0 0 C-0.33 1.65 -0.66 3.3 -1 5 C-0.34 5 0.32 5 1 5 C1.33 5.99 1.66 6.98 2 8 C-3.625 12 -3.625 12 -7 12 C-6.34 10.35 -5.68 8.7 -5 7 C-5.99 7 -6.98 7 -8 7 C-8 6.34 -8 5.68 -8 5 C-8.66 5 -9.32 5 -10 5 C-10 5.99 -10 6.98 -10 8 C-10.66 8 -11.32 8 -12 8 C-12.33 6.02 -12.66 4.04 -13 2 C-12.67 2.66 -12.34 3.32 -12 4 C-11.34 4 -10.68 4 -10 4 C-9.67 3.01 -9.34 2.02 -9 1 C-6.04335481 -0.4783226 -3.25770263 -0.06032783 0 0 Z " fill="#0077B8" transform="translate(81,124)"/>
<path d="M0 0 C0.66 0 1.32 0 2 0 C2 4.62 2 9.24 2 14 C3.65 13.67 5.3 13.34 7 13 C7 13.99 7 14.98 7 16 C4.03 16 1.06 16 -2 16 C-2.83739781 13.8765984 -3.66980283 11.7512272 -4.5 9.625 C-5.19609375 7.84996094 -5.19609375 7.84996094 -5.90625 6.0390625 C-7 3 -7 3 -7 1 C-2.125 2.875 -2.125 2.875 -1 4 C-0.67 2.68 -0.34 1.36 0 0 Z " fill="#004271" transform="translate(118,164)"/>
<path d="M0 0 C3.3125 0.1875 3.3125 0.1875 7 1 C8.8125 3.5 8.8125 3.5 10 6 C10.66 6.33 11.32 6.66 12 7 C12.33 5.68 12.66 4.36 13 3 C13.66 3 14.32 3 15 3 C14.98839844 3.61488281 14.97679687 4.22976562 14.96484375 4.86328125 C14.95582031 5.67152344 14.94679687 6.47976562 14.9375 7.3125 C14.92589844 8.11300781 14.91429687 8.91351563 14.90234375 9.73828125 C14.90342145 12.16861334 14.90342145 12.16861334 16 15 C14.35 15 12.7 15 11 15 C11 14.34 11 13.68 11 13 C9.68 12.34 8.36 11.68 7 11 C7.33 9.68 7.66 8.36 8 7 C7.236875 6.95875 6.47375 6.9175 5.6875 6.875 C3 6 3 6 1.1875 2.9375 C0.795625 1.968125 0.40375 0.99875 0 0 Z " fill="#013073" transform="translate(120,136)"/>
<path d="M0 0 C0.66 0 1.32 0 2 0 C2 0.66 2 1.32 2 2 C3.32 1.34 4.64 0.68 6 0 C6 2.64 6 5.28 6 8 C6.66 8.33 7.32 8.66 8 9 C8.625 11.0625 8.625 11.0625 9 13 C6 14 6 14 3 14 C2.34 14.66 1.68 15.32 1 16 C1 14.68 1 13.36 1 12 C0.01 11.67 -0.98 11.34 -2 11 C-2 10.01 -2 9.02 -2 8 C-1.34 8 -0.68 8 0 8 C0 5.36 0 2.72 0 0 Z " fill="#014B86" transform="translate(158,117)"/>
<path d="M0 0 C3.125 0.375 3.125 0.375 6 1 C5.95875 1.86625 5.9175 2.7325 5.875 3.625 C6.00457721 7.12358468 6.76019656 9.74551597 8 13 C4.75 12.875 4.75 12.875 1 12 C-3.07843137 7.41176471 -3.07843137 7.41176471 -2.875 3.75 C-2 2 -2 2 0 0 Z " fill="#002A7D" transform="translate(131,153)"/>
<path d="M0 0 C0.928125 0.2784375 0.928125 0.2784375 1.875 0.5625 C4.04160178 1.23686176 4.04160178 1.23686176 6 0 C8.125 0.9375 8.125 0.9375 10 2 C10 3.32 10 4.64 10 6 C11.258125 5.835 12.51625 5.67 13.8125 5.5 C16.26456585 5.17841759 18.51650694 5 21 5 C23.00309329 4.68578929 25.00371336 4.3548954 27 4 C26.67 4.99 26.34 5.98 26 7 C24.72125 7.144375 23.4425 7.28875 22.125 7.4375 C19.74307106 7.70642746 18.15547309 7.92226346 16 9 C13.94938967 8.75290429 11.90747329 8.43007496 9.875 8.0625 C8.77929688 7.86785156 7.68359375 7.67320313 6.5546875 7.47265625 C5.71164063 7.31667969 4.86859375 7.16070312 4 7 C4 6.34 4 5.68 4 5 C2.68 4.34 1.36 3.68 0 3 C0 2.01 0 1.02 0 0 Z " fill="#0094DC" transform="translate(79,82)"/>
<path d="M0 0 C2.69269909 0.37301459 3.78389625 0.7601145 5.6328125 2.8125 C6.12523437 3.534375 6.61765625 4.25625 7.125 5 C9.10073376 8.02283894 9.10073376 8.02283894 12 10 C12 10.99 12 11.98 12 13 C9.03 12.67 6.06 12.34 3 12 C3 11.01 3 10.02 3 9 C1.68 8.67 0.36 8.34 -1 8 C-0.34 8 0.32 8 1 8 C0.67 5.36 0.34 2.72 0 0 Z " fill="#00194D" transform="translate(146,167)"/>
<path d="M0 0 C1.28132813 0.10183594 2.56265625 0.20367187 3.8828125 0.30859375 C4.87023438 0.39238281 5.85765625 0.47617188 6.875 0.5625 C6.875 1.2225 6.875 1.8825 6.875 2.5625 C4.235 2.5625 1.595 2.5625 -1.125 2.5625 C-1.455 3.8825 -1.785 5.2025 -2.125 6.5625 C-2.785 5.5725 -3.445 4.5825 -4.125 3.5625 C-4.785 4.8825 -5.445 6.2025 -6.125 7.5625 C-5.135 7.8925 -4.145 8.2225 -3.125 8.5625 C-3.125 9.2225 -3.125 9.8825 -3.125 10.5625 C-4.115 10.8925 -5.105 11.2225 -6.125 11.5625 C-6.455 12.5525 -6.785 13.5425 -7.125 14.5625 C-8.115 14.2325 -9.105 13.9025 -10.125 13.5625 C-10.125 12.5725 -10.125 11.5825 -10.125 10.5625 C-9.465 10.5625 -8.805 10.5625 -8.125 10.5625 C-8.455 7.2625 -8.785 3.9625 -9.125 0.5625 C-6.07230154 -0.96384923 -3.36654311 -0.27544444 0 0 Z " fill="#2CAEE7" transform="translate(47.125,80.4375)"/>
<path d="M0 0 C0 0.66 0 1.32 0 2 C1.65 1.67 3.3 1.34 5 1 C3 4 3 4 0.375 4.6875 C-0.40875 4.790625 -1.1925 4.89375 -2 5 C-2 5.99 -2 6.98 -2 8 C-4.57213134 9.61949011 -5.67669159 10.04408751 -8.75 9.625 C-9.86375 9.315625 -9.86375 9.315625 -11 9 C-10.74682781 5.58217544 -9.71625376 4.72255923 -7.1875 2.25 C-4 0 -4 0 0 0 Z " fill="#004D7A" transform="translate(21,158)"/>
<path d="M0 0 C1.4540625 0.0309375 1.4540625 0.0309375 2.9375 0.0625 C3.5975 1.3825 4.2575 2.7025 4.9375 4.0625 C5.9275 4.0625 6.9175 4.0625 7.9375 4.0625 C7.9375 5.3825 7.9375 6.7025 7.9375 8.0625 C5.6275 8.7225 3.3175 9.3825 0.9375 10.0625 C0.9375 9.0725 0.9375 8.0825 0.9375 7.0625 C-0.7125 6.7325 -2.3625 6.4025 -4.0625 6.0625 C-4.105221 4.39638095 -4.10313832 2.72867115 -4.0625 1.0625 C-3.0625 0.0625 -3.0625 0.0625 0 0 Z " fill="#021B42" transform="translate(172.0625,117.9375)"/>
<path d="M0 0 C2.4375 0.75 2.4375 0.75 4.4375 1.75 C4.1075 2.41 3.7775 3.07 3.4375 3.75 C1.1275 3.75 -1.1825 3.75 -3.5625 3.75 C-4.82487731 6.27475462 -4.66106404 8.06200466 -4.625 10.875 C-4.61146484 12.24011719 -4.61146484 12.24011719 -4.59765625 13.6328125 C-4.58605469 14.33148438 -4.57445313 15.03015625 -4.5625 15.75 C-5.2225 15.75 -5.8825 15.75 -6.5625 15.75 C-6.5625 16.74 -6.5625 17.73 -6.5625 18.75 C-5.9025 18.75 -5.2425 18.75 -4.5625 18.75 C-4.5625 19.41 -4.5625 20.07 -4.5625 20.75 C-5.5525 20.75 -6.5425 20.75 -7.5625 20.75 C-7.8925 21.74 -8.2225 22.73 -8.5625 23.75 C-9.2225 23.75 -9.8825 23.75 -10.5625 23.75 C-10.8925 22.43 -11.2225 21.11 -11.5625 19.75 C-10.9025 19.75 -10.2425 19.75 -9.5625 19.75 C-9.2325 16.45 -8.9025 13.15 -8.5625 9.75 C-8.2325 9.75 -7.9025 9.75 -7.5625 9.75 C-7.1603125 8.1103125 -7.1603125 8.1103125 -6.75 6.4375 C-4.53444389 -0.44238477 -4.53444389 -0.44238477 0 0 Z " fill="#045D84" transform="translate(121.5625,133.25)"/>
<path d="M0 0 C4.4944629 3.08191742 7.92154831 6.93253683 10 12 C9.6328125 14.25 9.6328125 14.25 9 16 C6.75 16 6.75 16 4 15 C0.4072947 10.29390041 -0.4817544 5.78105283 0 0 Z " fill="#012660" transform="translate(116,141)"/>
<path d="M0 0 C1.65 0 3.3 0 5 0 C5 3.63 5 7.26 5 11 C2.03 10.01 -0.94 9.02 -4 8 C-4 4.01144966 -2.77971464 2.77971464 0 0 Z " fill="#003C6C" transform="translate(175,126)"/>
<path d="M0 0 C0.99 0.33 1.98 0.66 3 1 C3.66 0.67 4.32 0.34 5 0 C4.67 3.96 4.34 7.92 4 12 C2.35 12.33 0.7 12.66 -1 13 C-0.67 11.02 -0.34 9.04 0 7 C-0.99 7 -1.98 7 -3 7 C-3.1875 4.625 -3.1875 4.625 -3 2 C-2.01 1.34 -1.02 0.68 0 0 Z " fill="#005FB6" transform="translate(22,83)"/>
<path d="M0 0 C1.65 0 3.3 0 5 0 C5 0.66 5 1.32 5 2 C7.64 2.66 10.28 3.32 13 4 C13 4.99 13 5.98 13 7 C10.69 7 8.38 7 6 7 C6 7.66 6 8.32 6 9 C4.35 9 2.7 9 1 9 C1 8.34 1 7.68 1 7 C0.34 7 -0.32 7 -1 7 C-1 6.34 -1 5.68 -1 5 C-0.34 5 0.32 5 1 5 C0.67 3.35 0.34 1.7 0 0 Z " fill="#01549E" transform="translate(125,111)"/>
<path d="M0 0 C1.32 0 2.64 0 4 0 C3.00378883 3.68598133 2.3727219 4.78257889 -1 6.75 C-2.485 7.36875 -2.485 7.36875 -4 8 C-4.99 8.495 -4.99 8.495 -6 9 C-8.125 8.5625 -8.125 8.5625 -10 8 C-10 7.34 -10 6.68 -10 6 C-10.99 6.33 -11.98 6.66 -13 7 C-11.54545455 3.24242424 -11.54545455 3.24242424 -9.3125 2.25 C-6.19853938 1.91335561 -3.12892809 1.93982831 0 2 C0 1.34 0 0.68 0 0 Z " fill="#006EBD" transform="translate(50,99)"/>
<path d="M0 0 C3.1489715 1.36911804 5.0478487 2.8752136 7.25 5.5 C8.03117187 6.41265625 8.03117187 6.41265625 8.828125 7.34375 C10 9 10 9 10 11 C10.66 11 11.32 11 12 11 C12 11.66 12 12.32 12 13 C11.38125 13.28875 10.7625 13.5775 10.125 13.875 C7.86674235 14.93720042 7.86674235 14.93720042 6 17 C4.3372974 14.32521756 3.00016187 12.0004856 2 9 C2.20625 8.38125 2.4125 7.7625 2.625 7.125 C3.17544224 4.00582729 1.74620442 2.51453436 0 0 Z " fill="#0241A6" transform="translate(101,109)"/>
<path d="M0 0 C0.33 0.66 0.66 1.32 1 2 C2.65 1.67 4.3 1.34 6 1 C5.74438677 3.3431213 5.40729228 5.67843403 5 8 C2.29120665 9.35439668 -0.00933268 9.06501451 -3 9 C-4.125 3.25 -4.125 3.25 -3 1 C-2.01 0.67 -1.02 0.34 0 0 Z " fill="#024A9E" transform="translate(134,90)"/>
<path d="M0 0 C1.32 0.33 2.64 0.66 4 1 C3.67 1.66 3.34 2.32 3 3 C3.99 3 4.98 3 6 3 C6 7.95 6 12.9 6 18 C3 18 3 18 1.25 16.3125 C0 14 0 14 0.3125 11.25 C0.539375 10.5075 0.76625 9.765 1 9 C1.99 9 2.98 9 4 9 C3.2265625 8.13375 3.2265625 8.13375 2.4375 7.25 C1 5 1 5 1.3125 2.75 C1.539375 2.1725 1.76625 1.595 2 1 C1.34 0.67 0.68 0.34 0 0 Z " fill="#01417D" transform="translate(174,104)"/>
<path d="M0 0 C1.32 0.33 2.64 0.66 4 1 C4.103125 1.94875 4.20625 2.8975 4.3125 3.875 C4.68539295 7.29107501 4.68539295 7.29107501 8 9 C8 9.99 8 10.98 8 12 C6.35 11.67 4.7 11.34 3 11 C3 10.01 3 9.02 3 8 C1.35 8 -0.3 8 -2 8 C-2.33 6.02 -2.66 4.04 -3 2 C-2.01 2 -1.02 2 0 2 C0 1.34 0 0.68 0 0 Z " fill="#002866" transform="translate(171,87)"/>
<path d="M0 0 C1.32 0.33 2.64 0.66 4 1 C4 1.99 4 2.98 4 4 C7.465 3.505 7.465 3.505 11 3 C10.79375 3.61875 10.5875 4.2375 10.375 4.875 C10.25125 5.57625 10.1275 6.2775 10 7 C10.66 7.66 11.32 8.32 12 9 C10.68 9.33 9.36 9.66 8 10 C8 9.34 8 8.68 8 8 C6.02 8.33 4.04 8.66 2 9 C2 8.34 2 7.68 2 7 C1.34 7 0.68 7 0 7 C0 4.69 0 2.38 0 0 Z " fill="#01629A" transform="translate(0,120)"/>
<path d="M0 0 C-0.33 1.65 -0.66 3.3 -1 5 C-0.01 5 0.98 5 2 5 C1.34 6.32 0.68 7.64 0 9 C-3.7726764 8.46104623 -5.68212991 7.00464642 -8 4 C-7.9375 1.8125 -7.9375 1.8125 -7 0 C-3.86650268 -1.04449911 -3.01031744 -0.93423645 0 0 Z " fill="#015E9E" transform="translate(92,138)"/>
<path d="M0 0 C0.6875 2.0625 0.6875 2.0625 1 4 C-0.65 4.33 -2.3 4.66 -4 5 C-3.67 3.68 -3.34 2.36 -3 1 C-6.79547921 1.96776098 -6.79547921 1.96776098 -10 4 C-11.66617115 4.04063832 -13.33388095 4.042721 -15 4 C-15 3.34 -15 2.68 -15 2 C-15.99 2.66 -16.98 3.32 -18 4 C-18.99 4 -19.98 4 -21 4 C-21.33 2.68 -21.66 1.36 -22 0 C-20.72125 0.020625 -19.4425 0.04125 -18.125 0.0625 C-13.74814069 0.07635082 -9.50213359 -0.32115425 -5.1640625 -0.87890625 C-3 -1 -3 -1 0 0 Z " fill="#0197DC" transform="translate(77,88)"/>
<path d="M0 0 C1.62490954 -0.02698189 3.24994633 -0.04638757 4.875 -0.0625 C5.77992188 -0.07410156 6.68484375 -0.08570312 7.6171875 -0.09765625 C10 0 10 0 12 1 C12 1.66 12 2.32 12 3 C12.66 3.33 13.32 3.66 14 4 C13.34 4 12.68 4 12 4 C12 4.66 12 5.32 12 6 C11.34 6 10.68 6 10 6 C10.33 7.65 10.66 9.3 11 11 C10.67 10.34 10.34 9.68 10 9 C9.01 9 8.02 9 7 9 C6.67 6.36 6.34 3.72 6 1 C5.01 1.66 4.02 2.32 3 3 C2.01 3 1.02 3 0 3 C0 2.01 0 1.02 0 0 Z " fill="#02407E" transform="translate(150,108)"/>
<path d="M0 0 C2.96175123 0.61277612 4.38058783 1.25372522 7 3 C7.99 2.34 8.98 1.68 10 1 C10 4.96 10 8.92 10 13 C7.48916886 11.74458443 7.12874554 10.49936512 6 8 C5.34 8.66 4.68 9.32 4 10 C3.67 7.69 3.34 5.38 3 3 C2.01 2.67 1.02 2.34 0 2 C0 1.34 0 0.68 0 0 Z " fill="#002543" transform="translate(170,159)"/>
<path d="M0 0 C0.33 0.99 0.66 1.98 1 3 C0.030625 3.556875 -0.93875 4.11375 -1.9375 4.6875 C-5.18991279 6.68035805 -5.18991279 6.68035805 -5.875 9.75 C-5.91625 10.4925 -5.9575 11.235 -6 12 C-6.66 12 -7.32 12 -8 12 C-8 13.32 -8 14.64 -8 16 C-9.65 16 -11.3 16 -13 16 C-12.34 14.02 -11.68 12.04 -11 10 C-10.34 10 -9.68 10 -9 10 C-8.7525 9.443125 -8.505 8.88625 -8.25 8.3125 C-6.12086052 4.37359196 -4.32917913 1.44305971 0 0 Z " fill="#005286" transform="translate(92,164)"/>
<path d="M0 0 C0.99 2.64 1.98 5.28 3 8 C1.68 8.99 0.36 9.98 -1 11 C-1.33 10.01 -1.66 9.02 -2 8 C-2.99 8 -3.98 8 -5 8 C-6.0625 5.625 -6.0625 5.625 -7 3 C-6.67 2.34 -6.34 1.68 -6 1 C-3.911361 0.32624548 -2.19636905 0 0 0 Z " fill="#0664AF" transform="translate(98,99)"/>
<path d="M0 0 C1.703125 1.33984375 1.703125 1.33984375 3.25 2.9375 C3.77078125 3.46214844 4.2915625 3.98679687 4.828125 4.52734375 C6 6 6 6 6 8 C5.34 8 4.68 8 4 8 C4 8.66 4 9.32 4 10 C3.34 10 2.68 10 2 10 C1.67 8.68 1.34 7.36 1 6 C0.01 6 -0.98 6 -2 6 C-2 5.01 -2 4.02 -2 3 C-3.65 2.67 -5.3 2.34 -7 2 C-7 1.34 -7 0.68 -7 0 C-3.82263674 -1.05912109 -3.0253751 -1.11985784 0 0 Z " fill="#025BBB" transform="translate(87,91)"/>
<path d="M0 0 C0.66 0 1.32 0 2 0 C2 1.65 2 3.3 2 5 C1.01 5 0.02 5 -1 5 C-1.33 6.32 -1.66 7.64 -2 9 C-1.01 9 -0.02 9 1 9 C1.33 8.34 1.66 7.68 2 7 C1.49287967 10.71888239 0.88391785 13.73454239 -1 17 C-1.66 17 -2.32 17 -3 17 C-4.76885774 13.46228452 -4.23031742 9.458677 -3.625 5.625 C-3 4 -3 4 -1 3 C-0.67 2.01 -0.34 1.02 0 0 Z " fill="#3FB6EB" transform="translate(31,80)"/>
<path d="M0 0 C0.33 0.99 0.66 1.98 1 3 C0.34 3 -0.32 3 -1 3 C-1 4.32 -1 5.64 -1 7 C-1.804375 7.12375 -2.60875 7.2475 -3.4375 7.375 C-4.7059375 7.684375 -4.7059375 7.684375 -6 8 C-6.33 8.66 -6.66 9.32 -7 10 C-8.875 10.75 -8.875 10.75 -11 11 C-11.99 10.34 -12.98 9.68 -14 9 C-8.25 5 -8.25 5 -6 5 C-5.62875 4.0409375 -5.62875 4.0409375 -5.25 3.0625 C-4 1 -4 1 -1.875 0.25 C-1.25625 0.1675 -0.6375 0.085 0 0 Z " fill="#00578E" transform="translate(104,155)"/>
<path d="M0 0 C3.04386724 -0.08226668 5.07175348 0.02391783 8 1 C8.99 1 9.98 1 11 1 C11 2.32 11 3.64 11 5 C9.68 5 8.36 5 7 5 C7 5.66 7 6.32 7 7 C3.7 7 0.4 7 -3 7 C-3 6.67 -3 6.34 -3 6 C-0.69 6 1.62 6 4 6 C3.34 5.38125 2.68 4.7625 2 4.125 C0 2 0 2 0 0 Z " fill="#034773" transform="translate(19,131)"/>
<path d="M0 0 C0.66 0 1.32 0 2 0 C2 0.99 2 1.98 2 3 C3.43750191 4.68798827 3.43750191 4.68798827 5 6 C3.6975667 8.90542812 2.29113732 10.8092961 0 13 C-0.67408308 11.73308493 -1.33900497 10.46129251 -2 9.1875 C-2.556875 8.12595703 -2.556875 8.12595703 -3.125 7.04296875 C-4 5 -4 5 -4 2 C-2.68 2.99 -1.36 3.98 0 5 C-0.33 4.01 -0.66 3.02 -1 2 C-0.67 1.34 -0.34 0.68 0 0 Z " fill="#02338C" transform="translate(126,143)"/>
<path d="M0 0 C0.99 0 1.98 0 3 0 C3 1.32 3 2.64 3 4 C4.32 4.66 5.64 5.32 7 6 C4.69 6.66 2.38 7.32 0 8 C-0.33 9.98 -0.66 11.96 -1 14 C-2.65 12.35 -4.3 10.7 -6 9 C-4 6 -4 6 -1.875 5.3125 C-1.25625 5.209375 -0.6375 5.10625 0 5 C0 3.35 0 1.7 0 0 Z " fill="#015DA8" transform="translate(119,113)"/>
<path d="M0 0 C0.33 0.99 0.66 1.98 1 3 C0.01 4.485 0.01 4.485 -1 6 C-0.01 6.33 0.98 6.66 2 7 C2.33 7.66 2.66 8.32 3 9 C3.66 9 4.32 9 5 9 C5.33 9.99 5.66 10.98 6 12 C2.37 12 -1.26 12 -5 12 C-4.34 11.01 -3.68 10.02 -3 9 C-2.835 7.824375 -2.67 6.64875 -2.5 5.4375 C-2 2 -2 2 0 0 Z " fill="#006298" transform="translate(65,168)"/>
<path d="M0 0 C3.36295835 1.44126786 5.62927102 3.20592655 8 6 C8 6.99 8 7.98 8 9 C5.69 9.33 3.38 9.66 1 10 C0.67 9.01 0.34 8.02 0 7 C0.66 7 1.32 7 2 7 C2 5.68 2 4.36 2 3 C1.34 3 0.68 3 0 3 C0 2.01 0 1.02 0 0 Z " fill="#025992" transform="translate(32,133)"/>
<path d="M0 0 C0.66 0.33 1.32 0.66 2 1 C2.59355614 3.64860427 2.74209269 6.29197322 3 9 C0.69 9.33 -1.62 9.66 -4 10 C-4.33 8.35 -4.66 6.7 -5 5 C-4.34 5 -3.68 5 -3 5 C-2.67 4.01 -2.34 3.02 -2 2 C-1.34 2 -0.68 2 0 2 C0 1.34 0 0.68 0 0 Z " fill="#0165B2" transform="translate(156,89)"/>
<path d="M0 0 C3.96 0 7.92 0 12 0 C9.94731917 3.07902124 9.39808026 3.89791992 6 5 C2.25 4.625 2.25 4.625 -1 4 C-0.67 2.68 -0.34 1.36 0 0 Z " fill="#2AB1EC" transform="translate(56,83)"/>
<path d="M0 0 C0.99 0.33 1.98 0.66 3 1 C2.34 4.3 1.68 7.6 1 11 C0.67 10.34 0.34 9.68 0 9 C-0.66 9 -1.32 9 -2 9 C-2 9.66 -2 10.32 -2 11 C-2.66 11 -3.32 11 -4 11 C-6.125 4.375 -6.125 4.375 -5 1 C-4.34 1 -3.68 1 -3 1 C-3 3.31 -3 5.62 -3 8 C-2.34 8 -1.68 8 -1 8 C-1.020625 6.865625 -1.04125 5.73125 -1.0625 4.5625 C-1 1 -1 1 0 0 Z " fill="#016EC6" transform="translate(148,76)"/>
<path d="M0 0 C0.33 0.99 0.66 1.98 1 3 C-0.75 5 -0.75 5 -3 7 C-4.32 7 -5.64 7 -7 7 C-7 5.68 -7 4.36 -7 3 C-7.66 3 -8.32 3 -9 3 C-9 2.34 -9 1.68 -9 1 C-6.04335481 -0.4783226 -3.25770263 -0.06032783 0 0 Z " fill="#0171B7" transform="translate(138,119)"/>
<path d="M0 0 C0.33 2.31 0.66 4.62 1 7 C-1.64 7 -4.28 7 -7 7 C-7 5.35 -7 3.7 -7 2 C-2.25 0 -2.25 0 0 0 Z " fill="#0377CB" transform="translate(55,87)"/>
<path d="M0 0 C2.875 0.1875 2.875 0.1875 6 1 C7.93720146 4.25802063 8 6.15044673 8 10 C3.7257442 8.4169423 1.73468206 5.49431596 -1 2 C-0.67 1.34 -0.34 0.68 0 0 Z " fill="#003D66" transform="translate(159,161)"/>
<path d="M0 0 C0.99 1.32 1.98 2.64 3 4 C4.98 3.67 6.96 3.34 9 3 C8.01 3.495 8.01 3.495 7 4 C7 5.65 7 7.3 7 9 C3.535 7.02 3.535 7.02 0 5 C0.33 6.32 0.66 7.64 1 9 C0.01 9.495 0.01 9.495 -1 10 C-1 8.35 -1 6.7 -1 5 C-1.99 4.67 -2.98 4.34 -4 4 C-2.68 2.68 -1.36 1.36 0 0 Z " fill="#015186" transform="translate(111,160)"/>
<path d="M0 0 C0.66 0 1.32 0 2 0 C6.42857143 7.42857143 6.42857143 7.42857143 7 11 C-0.50769231 10.38461538 -0.50769231 10.38461538 -3 8.4375 C-3.33 7.963125 -3.66 7.48875 -4 7 C-3.67 6.34 -3.34 5.68 -3 5 C-0.525 5.99 -0.525 5.99 2 7 C2 7.66 2 8.32 2 9 C2.66 9 3.32 9 4 9 C3.71125 8.43410156 3.4225 7.86820313 3.125 7.28515625 C2.568125 6.18494141 2.568125 6.18494141 2 5.0625 C1.443125 3.96615234 1.443125 3.96615234 0.875 2.84765625 C0 1 0 1 0 0 Z " fill="#004D7E" transform="translate(149,156)"/>
<path d="M0 0 C1.32 0 2.64 0 4 0 C3.67 1.98 3.34 3.96 3 6 C3.66 6.33 4.32 6.66 5 7 C3.02 7.99 3.02 7.99 1 9 C1 8.34 1 7.68 1 7 C-0.32 7.33 -1.64 7.66 -3 8 C-1.125 1.125 -1.125 1.125 0 0 Z " fill="#1094D6" transform="translate(18,90)"/>
<path d="M0 0 C1.65 0.33 3.3 0.66 5 1 C5 2.65 5 4.3 5 6 C-1.625 7.125 -1.625 7.125 -5 6 C-5 5.34 -5 4.68 -5 4 C-3.68 4 -2.36 4 -1 4 C-0.67 2.68 -0.34 1.36 0 0 Z " fill="#013F93" transform="translate(45,95)"/>
<path d="M0 0 C2.8384145 1.71798773 4.68152621 3.07018456 5.77734375 6.26953125 C6.26033279 8.50820309 6.67548233 10.73321986 7 13 C5.68 13 4.36 13 3 13 C-0.42857143 4.57142857 -0.42857143 4.57142857 0 0 Z " fill="#002E56" transform="translate(113,167)"/>
<path d="M0 0 C0 4.29 0 8.58 0 13 C-0.66 12.67 -1.32 12.34 -2 12 C-2 11.34 -2 10.68 -2 10 C-2.99 10 -3.98 10 -5 10 C-4.67 8.68 -4.34 7.36 -4 6 C-3.01 6 -2.02 6 -1 6 C-1 4.35 -1 2.7 -1 1 C-1.66 1 -2.32 1 -3 1 C-3.33 2.32 -3.66 3.64 -4 5 C-4.66 5 -5.32 5 -6 5 C-6.33 3.68 -6.66 2.36 -7 1 C-4 0 -4 0 0 0 Z " fill="#19A1E3" transform="translate(34,79)"/>
<path d="M0 0 C2.70931419 0.15481795 4.46584039 0.48172081 6.4453125 2.40234375 C7.67679642 3.89771708 8.8429837 5.4462924 10 7 C7.33333333 6.33333333 4.66666667 5.66666667 2 5 C2 5.99 2 6.98 2 8 C1.01 8 0.02 8 -1 8 C-0.67 5.36 -0.34 2.72 0 0 Z " fill="#0159BA" transform="translate(150,77)"/>
<path d="M0 0 C2 1.625 2 1.625 4 4 C4.25 7.25 4.25 7.25 4 10 C2.02 10 0.04 10 -2 10 C-2 9.01 -2 8.02 -2 7 C-1.01 7.33 -0.02 7.66 1 8 C0.484375 7.5875 -0.03125 7.175 -0.5625 6.75 C-1.036875 6.1725 -1.51125 5.595 -2 5 C-1.74853421 2.86254078 -1.54074221 1.54074221 0 0 Z " fill="#54BCED" transform="translate(43,83)"/>
<path d="M0 0 C2.8125 0.125 2.8125 0.125 6 1 C7.875 4.0625 7.875 4.0625 9 7 C6.1875 7.25 6.1875 7.25 3 7 C1.125 5.1875 1.125 5.1875 0 3 C0 2.01 0 1.02 0 0 Z " fill="#011536" transform="translate(132,173)"/>
<path d="M0 0 C0.8353125 0.2165625 0.8353125 0.2165625 1.6875 0.4375 C4.11384195 1.02769128 6.54906345 1.523429 9 2 C8.67 2.99 8.34 3.98 8 5 C4.37 5 0.74 5 -3 5 C-3.33 4.34 -3.66 3.68 -4 3 C-3.01 3 -2.02 3 -1 3 C-0.67 2.01 -0.34 1.02 0 0 Z " fill="#01428D" transform="translate(157,98)"/>
<path d="M0 0 C1.28132813 0.10183594 2.56265625 0.20367187 3.8828125 0.30859375 C4.87023438 0.39238281 5.85765625 0.47617188 6.875 0.5625 C6.875 1.2225 6.875 1.8825 6.875 2.5625 C4.235 2.5625 1.595 2.5625 -1.125 2.5625 C-1.455 3.8825 -1.785 5.2025 -2.125 6.5625 C-2.455 5.2425 -2.785 3.9225 -3.125 2.5625 C-4.775 2.5625 -6.425 2.5625 -8.125 2.5625 C-8.455 3.2225 -8.785 3.8825 -9.125 4.5625 C-9.125 3.2425 -9.125 1.9225 -9.125 0.5625 C-6.07230154 -0.96384923 -3.36654311 -0.27544444 0 0 Z " fill="#12ACEC" transform="translate(47.125,80.4375)"/>
<path d="M0 0 C3.2542015 2.83430453 4.5206753 4.68607774 5 9 C2.03 8.505 2.03 8.505 -1 8 C-1.125 2.25 -1.125 2.25 0 0 Z " fill="#016EB4" transform="translate(93,111)"/>
<path d="M0 0 C0.33 0.66 0.66 1.32 1 2 C1.70125 1.67 2.4025 1.34 3.125 1 C6.26003116 -0.09044562 8.70563182 -0.15322643 12 0 C9.99141222 1.00654063 7.98125606 2.00921007 5.96484375 3 C5.29582031 3.33 4.62679688 3.66 3.9375 4 C2.93009766 4.495 2.93009766 4.495 1.90234375 5 C-0.23387615 6.08091824 -0.23387615 6.08091824 -3 8 C-3 6.02 -3 4.04 -3 2 C-2.01 2 -1.02 2 0 2 C0 1.34 0 0.68 0 0 Z " fill="#0160A3" transform="translate(3,104)"/>
<path d="M0 0 C0.66 0 1.32 0 2 0 C2 0.66 2 1.32 2 2 C3.32 1.34 4.64 0.68 6 0 C6.04254356 1.99954746 6.04080783 4.00041636 6 6 C5 7 5 7 2.4375 7.0625 C1.2309375 7.0315625 1.2309375 7.0315625 0 7 C0 4.69 0 2.38 0 0 Z " fill="#02599C" transform="translate(158,117)"/>
<path d="M0 0 C0.928125 0.2784375 0.928125 0.2784375 1.875 0.5625 C4.04160178 1.23686176 4.04160178 1.23686176 6 0 C8.125 0.9375 8.125 0.9375 10 2 C9.67 2.99 9.34 3.98 9 5 C6.9375 5.6875 6.9375 5.6875 5 6 C5 5.34 5 4.68 5 4 C3.35 3.67 1.7 3.34 0 3 C0 2.01 0 1.02 0 0 Z " fill="#05A7E8" transform="translate(79,82)"/>
<path d="M0 0 C2.4375 0.375 2.4375 0.375 5 1 C6.20272819 3.40545638 6.10071472 4.94996953 6.0625 7.625 C6.05347656 8.44226563 6.04445312 9.25953125 6.03515625 10.1015625 C6.02355469 10.72804687 6.01195312 11.35453125 6 12 C0 4.28571429 0 4.28571429 0 0 Z " fill="#024042" transform="translate(122,155)"/>
<path d="M0 0 C3.36720387 1.39332574 4.9859524 2.9789286 7 6 C6.34 6 5.68 6 5 6 C5 6.99 5 7.98 5 9 C3 9 3 9 0.8125 7.3125 C-1 5 -1 5 -0.75 2.25 C-0.5025 1.5075 -0.255 0.765 0 0 Z " fill="#0A51AF" transform="translate(99,109)"/>
<path d="M0 0 C0.66 0.33 1.32 0.66 2 1 C2 1.99 2 2.98 2 4 C2.66 4 3.32 4 4 4 C4 4.99 4 5.98 4 7 C1.69 7 -0.62 7 -3 7 C-2.25 2.25 -2.25 2.25 0 0 Z " fill="#005A93" transform="translate(104,173)"/>
<path d="M0 0 C3.375 0.25 3.375 0.25 7 1 C8.4375 3.0625 8.4375 3.0625 9 5 C7.02 5.99 7.02 5.99 5 7 C2.47411298 4.63707344 1.11179163 3.33537489 0 0 Z " fill="#022F85" transform="translate(120,136)"/>
<path d="M0 0 C0.33 0.99 0.66 1.98 1 3 C0.505 3.33 0.01 3.66 -0.5 4 C-2.88179561 7.17572747 -2.19168226 10.10246066 -2 14 C-2.99 13.67 -3.98 13.34 -5 13 C-5.61538462 5.73846154 -5.61538462 5.73846154 -2.5 2 C-1.675 1.34 -0.85 0.68 0 0 Z " fill="#00528B" transform="translate(70,147)"/>
<path d="M0 0 C0.33 0 0.66 0 1 0 C1 3.3 1 6.6 1 10 C-0.65 10.66 -2.3 11.32 -4 12 C-2.98181818 2.98181818 -2.98181818 2.98181818 0 0 Z " fill="#0076B7" transform="translate(58,122)"/>
<path d="M0 0 C0 0.99 0 1.98 0 3 C-3.63 3.33 -7.26 3.66 -11 4 C-10.01 3.67 -9.02 3.34 -8 3 C-8 2.01 -8 1.02 -8 0 C-5.13822943 -1.43088528 -3.06624227 -0.59991697 0 0 Z " fill="#02326F" transform="translate(138,115)"/>
<path d="M0 0 C0.33 0.66 0.66 1.32 1 2 C3.02463255 2.65213292 3.02463255 2.65213292 5 3 C3.75 4.5625 3.75 4.5625 2 6 C0.0625 5.625 0.0625 5.625 -2 5 C-4.18703385 5.37907282 -4.18703385 5.37907282 -6 6 C-6.33 5.34 -6.66 4.68 -7 4 C-5.68 4 -4.36 4 -3 4 C-3 3.34 -3 2.68 -3 2 C-2.01 1.34 -1.02 0.68 0 0 Z " fill="#0083D4" transform="translate(119,86)"/>
<path d="M0 0 C2 1 4 2 6 3 C6 3.99 6 4.98 6 6 C6.99 6.33 7.98 6.66 9 7 C9.33 8.65 9.66 10.3 10 12 C9.67 11.34 9.34 10.68 9 10 C8.01 9.67 7.02 9.34 6 9 C2 4.54285714 2 4.54285714 2 2 C1.34 2 0.68 2 0 2 C0 1.34 0 0.68 0 0 Z " fill="#003D68" transform="translate(159,151)"/>
<path d="M0 0 C1.65 0 3.3 0 5 0 C5 1.98 5 3.96 5 6 C3.35 6 1.7 6 0 6 C0 4.02 0 2.04 0 0 Z " fill="#004572" transform="translate(55,174)"/>
<path d="M0 0 C2.97 0.495 2.97 0.495 6 1 C5.67 2.32 5.34 3.64 5 5 C5.66 5.33 6.32 5.66 7 6 C4.69 6 2.38 6 0 6 C0 4.02 0 2.04 0 0 Z " fill="#02438B" transform="translate(0,100)"/>
<path d="M0 0 C0 1.98 0 3.96 0 6 C-1.9375 6.5625 -1.9375 6.5625 -4 7 C-5 6 -5 6 -5.0625 3.4375 C-5.041875 2.633125 -5.02125 1.82875 -5 1 C-2 0 -2 0 0 0 Z " fill="#023379" transform="translate(5,86)"/>
<path d="M0 0 C2.5654594 2.5654594 2.54046087 4.47686668 3 8 C0.69 8 -1.62 8 -4 8 C-2.68 5.36 -1.36 2.72 0 0 Z " fill="#005082" transform="translate(113,172)"/>
<path d="M0 0 C0.99 0.33 1.98 0.66 3 1 C3 1.66 3 2.32 3 3 C3.61875 3.20625 4.2375 3.4125 4.875 3.625 C7.84653645 5.54775888 8.13024659 7.66594527 9 11 C7.0625 10.25 7.0625 10.25 5 9 C4.25 6.875 4.25 6.875 4 5 C3.34 5 2.68 5 2 5 C1.34 3.35 0.68 1.7 0 0 Z " fill="#001C55" transform="translate(134,169)"/>
<path d="M0 0 C-0.33 0.99 -0.66 1.98 -1 3 C-1.99 3 -2.98 3 -4 3 C-4.33 4.32 -4.66 5.64 -5 7 C-5.99 6.67 -6.98 6.34 -8 6 C-7.6875 4.125 -7.6875 4.125 -7 2 C-4 0 -4 0 0 0 Z " fill="#00598A" transform="translate(21,158)"/>
<path d="M0 0 C0.66 1.32 1.32 2.64 2 4 C2.99 4.33 3.98 4.66 5 5 C4.34 6.65 3.68 8.3 3 10 C2.01 10 1.02 10 0 10 C0 6.7 0 3.4 0 0 Z " fill="#04213E" transform="translate(0,128)"/>
<path d="M0 0 C0.66 0 1.32 0 2 0 C2.33 0.99 2.66 1.98 3 3 C5.01508358 3.73323796 5.01508358 3.73323796 7 4 C6.34 5.98 5.68 7.96 5 10 C4.34 9.01 3.68 8.02 3 7 C2.01 6.67 1.02 6.34 0 6 C0 4.02 0 2.04 0 0 Z " fill="#0066A0" transform="translate(0,114)"/>
<path d="M0 0 C-0.66 1.98 -1.32 3.96 -2 6 C-2.66 6 -3.32 6 -4 6 C-3.67 7.98 -3.34 9.96 -3 12 C-3.66 11.67 -4.32 11.34 -5 11 C-5.4140625 8.93359375 -5.4140625 8.93359375 -5.625 6.4375 C-5.69976562 5.61121094 -5.77453125 4.78492188 -5.8515625 3.93359375 C-5.90054688 3.29550781 -5.94953125 2.65742188 -6 2 C-2.25 0 -2.25 0 0 0 Z " fill="#005490" transform="translate(147,136)"/>
<path d="M0 0 C7 7 7 7 7.125 10.125 C7.08375 11.07375 7.0425 12.0225 7 13 C0 4.55172414 0 4.55172414 0 0 Z " fill="#01285B" transform="translate(108,131)"/>
<path d="M0 0 C0 0.66 0 1.32 0 2 C-0.66 2 -1.32 2 -2 2 C-2 2.66 -2 3.32 -2 4 C-2.99 4.66 -3.98 5.32 -5 6 C-5.72965366 8.56282742 -5.72965366 8.56282742 -6 11 C-6.66 11 -7.32 11 -8 11 C-8.3125 8.3125 -8.3125 8.3125 -8 5 C-3.97826087 0 -3.97826087 0 0 0 Z " fill="#015CA2" transform="translate(67,117)"/>
<path d="M0 0 C7.66742597 5.96583144 7.66742597 5.96583144 9 11 C8.34 11 7.68 11 7 11 C7 10.01 7 9.02 7 8 C6.01 8.33 5.02 8.66 4 9 C0 3.375 0 3.375 0 0 Z " fill="#044287" transform="translate(94,109)"/>
<path d="M0 0 C1.32 0.66 2.64 1.32 4 2 C4 2.66 4 3.32 4 4 C3.21625 4.12375 2.4325 4.2475 1.625 4.375 C-1.14057822 4.79117993 -1.14057822 4.79117993 -3 7 C-3.33 5.68 -3.66 4.36 -4 3 C-2.68 2.01 -1.36 1.02 0 0 Z " fill="#0163B7" transform="translate(15,71)"/>
<path d="M0 0 C1.32 0 2.64 0 4 0 C4.33 3.3 4.66 6.6 5 10 C4.01 9.01 3.02 8.02 2 7 C2 6.01 2 5.02 2 4 C1.34 4 0.68 4 0 4 C0 2.68 0 1.36 0 0 Z " fill="#013160" transform="translate(143,142)"/>
<path d="M0 0 C0.99 0.33 1.98 0.66 3 1 C4.1875 4.0625 4.1875 4.0625 5 7 C3.02 7 1.04 7 -1 7 C-0.67 4.69 -0.34 2.38 0 0 Z " fill="#013582" transform="translate(7,88)"/>
<path d="M0 0 C0.99 0 1.98 0 3 0 C3 2.31 3 4.62 3 7 C1.68 6.34 0.36 5.68 -1 5 C-1 1 -1 1 0 0 Z " fill="#0052A0" transform="translate(177,85)"/>
<path d="M0 0 C1.1446875 0.2784375 1.1446875 0.2784375 2.3125 0.5625 C5.08967375 1.22819173 5.08967375 1.22819173 8 0 C8 0.99 8 1.98 8 3 C6.68 3 5.36 3 4 3 C3.67 3.99 3.34 4.98 3 6 C3 5.34 3 4.68 3 4 C2.01 3.67 1.02 3.34 0 3 C0 2.01 0 1.02 0 0 Z " fill="#007BD0" transform="translate(135,77)"/>
<path d="M0 0 C0.99 0 1.98 0 3 0 C3 1.98 3 3.96 3 6 C1.35 5.67 -0.3 5.34 -2 5 C-1.125 1.125 -1.125 1.125 0 0 Z " fill="#001B48" transform="translate(150,112)"/>
<path d="M0 0 C0.66 0 1.32 0 2 0 C2.103125 0.639375 2.20625 1.27875 2.3125 1.9375 C2.539375 2.618125 2.76625 3.29875 3 4 C3.99 4.33 4.98 4.66 6 5 C6.6875 7.0625 6.6875 7.0625 7 9 C5.35 8.67 3.7 8.34 2 8 C1.33333333 5.33333333 0.66666667 2.66666667 0 0 Z " fill="#015AA6" transform="translate(131,106)"/>
<path d="M0 0 C2.0625 0.4375 2.0625 0.4375 4 1 C3.01 1.495 3.01 1.495 2 2 C1.34444881 4.52733235 1.34444881 4.52733235 1 7 C0.01 6.67 -0.98 6.34 -2 6 C-1.125 1.125 -1.125 1.125 0 0 Z " fill="#0259AC" transform="translate(43,93)"/>
<path d="M0 0 C0.66 0 1.32 0 2 0 C0.94124926 3.40312738 -0.00902154 6.01353231 -2 9 C-2.99 9 -3.98 9 -5 9 C-4.67 8.01 -4.34 7.02 -4 6 C-3.34 6 -2.68 6 -2 6 C-1.855625 5.195625 -1.71125 4.39125 -1.5625 3.5625 C-1 1 -1 1 0 0 Z " fill="#0151A6" transform="translate(147,90)"/>
<path d="M0 0 C0 1.98 0 3.96 0 6 C-2.31 6 -4.62 6 -7 6 C-7 5.01 -7 4.02 -7 3 C-5.68 3 -4.36 3 -3 3 C-3 2.34 -3 1.68 -3 1 C-1 0 -1 0 0 0 Z " fill="#013585" transform="translate(139,92)"/>
<path d="M0 0 C1.32 0 2.64 0 4 0 C3.67 2.31 3.34 4.62 3 7 C2.34 6.67 1.68 6.34 1 6 C-1.09821215 6.39938767 -1.09821215 6.39938767 -3 7 C-2.67 6.34 -2.34 5.68 -2 5 C-1.34 5 -0.68 5 0 5 C0 3.35 0 1.7 0 0 Z " fill="#0261BC" transform="translate(34,87)"/>
<path d="M0 0 C3.48331435 3.01887244 4.79157144 5.56909529 6 10 C3.5625 8.9375 3.5625 8.9375 1 7 C0.1875 3.3125 0.1875 3.3125 0 0 Z " fill="#011C53" transform="translate(128,159)"/>
<path d="M0 0 C2.61580479 0.3269756 4.64078137 0.82039068 7 2 C6.67 2.66 6.34 3.32 6 4 C4.88625 3.95875 3.7725 3.9175 2.625 3.875 C-1.04366025 3.58878141 -1.04366025 3.58878141 -3 6 C-2.42655063 3.13275314 -2.1385485 2.1385485 0 0 Z " fill="#1D798E" transform="translate(119,133)"/>
<path d="M0 0 C1.32 0.66 2.64 1.32 4 2 C3.67 3.98 3.34 5.96 3 8 C1.35 6.35 -0.3 4.7 -2 3 C-1.34 2.01 -0.68 1.02 0 0 Z " fill="#0268AD" transform="translate(115,119)"/>
<path d="M0 0 C0.66 0.33 1.32 0.66 2 1 C2 2.32 2 3.64 2 5 C1.34 5 0.68 5 0 5 C0 5.66 0 6.32 0 7 C-0.99 7 -1.98 7 -3 7 C-3 5.35 -3 3.7 -3 2 C-2.01 2 -1.02 2 0 2 C0 1.34 0 0.68 0 0 Z " fill="#024477" transform="translate(148,117)"/>
<path d="M0 0 C2 1.3125 2 1.3125 4 3 C4 3.99 4 4.98 4 6 C1.03 5.67 -1.94 5.34 -5 5 C-3.68 4.67 -2.36 4.34 -1 4 C-0.67 2.68 -0.34 1.36 0 0 Z " fill="#012543" transform="translate(154,174)"/>
<path d="M0 0 C2.0625 0.4375 2.0625 0.4375 4 1 C3.67 1.66 3.34 2.32 3 3 C3.66 3.33 4.32 3.66 5 4 C3.02 4.66 1.04 5.32 -1 6 C-1.042721 4.33388095 -1.04063832 2.66617115 -1 1 C-0.67 0.67 -0.34 0.34 0 0 Z " fill="#004F7D" transform="translate(25,173)"/>
<path d="M0 0 C5.875 4.625 5.875 4.625 7 8 C5.35 8 3.7 8 2 8 C1.34 5.36 0.68 2.72 0 0 Z " fill="#012F87" transform="translate(115,125)"/>
<path d="M0 0 C2.92879371 0.62759865 5.36095629 1.58622659 8 3 C7.21625 3.0825 6.4325 3.165 5.625 3.25 C2.85250896 3.72806339 2.85250896 3.72806339 1.6875 6.0625 C1.460625 6.701875 1.23375 7.34125 1 8 C0.67 5.36 0.34 2.72 0 0 Z " fill="#022A5B" transform="translate(166,115)"/>
<path d="M0 0 C0.75 1.75 0.75 1.75 1 4 C-0.8125 6.25 -0.8125 6.25 -3 8 C-3.66 8 -4.32 8 -5 8 C-5.33 7.01 -5.66 6.02 -6 5 C-5.01 4.67 -4.02 4.34 -3 4 C-1.31461399 2.00334686 -1.31461399 2.00334686 0 0 Z " fill="#0070C0" transform="translate(61,98)"/>
<path d="M0 0 C1.98 0.495 1.98 0.495 4 1 C3.67 2.65 3.34 4.3 3 6 C1.68 5.34 0.36 4.68 -1 4 C-0.67 2.68 -0.34 1.36 0 0 Z " fill="#31B3EB" transform="translate(22,76)"/>
<path d="M0 0 C0.99 0 1.98 0 3 0 C3.185625 0.9590625 3.185625 0.9590625 3.375 1.9375 C3.684375 2.9584375 3.684375 2.9584375 4 4 C4.66 4.33 5.32 4.66 6 5 C6 5.66 6 6.32 6 7 C3.13275314 6.42655063 2.1385485 6.1385485 0 4 C0 2.68 0 1.36 0 0 Z " fill="#01528E" transform="translate(86,140)"/>
<path d="M0 0 C1.32 0.33 2.64 0.66 4 1 C2.68 1.33 1.36 1.66 0 2 C0 1.34 0 0.68 0 0 Z M-7 2 C-4.69 2 -2.38 2 0 2 C-0.33 2.99 -0.66 3.98 -1 5 C-2.65 5 -4.3 5 -6 5 C-6.33 4.01 -6.66 3.02 -7 2 Z " fill="#026BA0" transform="translate(26,136)"/>
<path d="M0 0 C2.4375 0.375 2.4375 0.375 5 1 C5.33 1.66 5.66 2.32 6 3 C4.68 3.99 3.36 4.98 2 6 C1.67 5.01 1.34 4.02 1 3 C0.34 2.67 -0.32 2.34 -1 2 C-0.67 1.34 -0.34 0.68 0 0 Z " fill="#0248B0" transform="translate(95,104)"/>
<path d="M0 0 C0.66 0 1.32 0 2 0 C2 1.98 2 3.96 2 6 C0.02 6 -1.96 6 -4 6 C-3.67 5.01 -3.34 4.02 -3 3 C-2.34 3 -1.68 3 -1 3 C-0.67 2.01 -0.34 1.02 0 0 Z " fill="#0152B3" transform="translate(53,87)"/>
<path d="M0 0 C0 0.66 0 1.32 0 2 C-2.31 2.66 -4.62 3.32 -7 4 C-7.33 2.68 -7.66 1.36 -8 0 C-4.71023192 -1.09658936 -3.28696233 -0.79953138 0 0 Z " fill="#007ED0" transform="translate(132,89)"/>
<path d="M0 0 C1.258125 -0.04125 2.51625 -0.0825 3.8125 -0.125 C4.52019531 -0.14820312 5.22789062 -0.17140625 5.95703125 -0.1953125 C8 0 8 0 11 2 C6.545 2.495 6.545 2.495 2 3 C1.34 2.01 0.68 1.02 0 0 Z " fill="#0158A8" transform="translate(160,84)"/>
<path d="M0 0 C0.99 0.33 1.98 0.66 3 1 C2.25 7.625 2.25 7.625 0 11 C0 7.37 0 3.74 0 0 Z " fill="#32AADD" transform="translate(12,83)"/>
<path d="M0 0 C1.32 0.33 2.64 0.66 4 1 C3.67 2.32 3.34 3.64 3 5 C1.35 5.33 -0.3 5.66 -2 6 C-2 4.68 -2 3.36 -2 2 C-1.34 2 -0.68 2 0 2 C0 1.34 0 0.68 0 0 Z " fill="#0282C7" transform="translate(2,80)"/>
<path d="M0 0 C1.33332095 2.6666419 0.67102033 4.16680303 0 7 C-1.32 7 -2.64 7 -4 7 C-3.39816251 4.97954558 -2.72693904 2.97888961 -2 1 C-1.34 0.67 -0.68 0.34 0 0 Z " fill="#003D67" transform="translate(83,173)"/>
<path d="M0 0 C4.55384615 -0.36923077 4.55384615 -0.36923077 6.8125 1.5 C7.204375 1.995 7.59625 2.49 8 3 C7.01 4.485 7.01 4.485 6 6 C5.34 6 4.68 6 4 6 C3.896875 5.360625 3.79375 4.72125 3.6875 4.0625 C3.460625 3.381875 3.23375 2.70125 3 2 C2.01 1.67 1.02 1.34 0 1 C0 0.67 0 0.34 0 0 Z " fill="#023A63" transform="translate(164,149)"/>
<path d="M0 0 C0.99 0 1.98 0 3 0 C3.33 1.32 3.66 2.64 4 4 C3.01 4.33 2.02 4.66 1 5 C0.67 5.66 0.34 6.32 0 7 C-0.38133299 5.0085944 -0.71325582 3.00720923 -1 1 C-0.67 0.67 -0.34 0.34 0 0 Z " fill="#0248A4" transform="translate(110,124)"/>
<path d="M0 0 C0.33 0.66 0.66 1.32 1 2 C1.66 2 2.32 2 3 2 C3 2.99 3 3.98 3 5 C3.99 5 4.98 5 6 5 C6.33 6.32 6.66 7.64 7 9 C6.01 9.495 6.01 9.495 5 10 C4.15801693 8.90241493 3.32669329 7.79664683 2.5 6.6875 C2.0359375 6.07261719 1.571875 5.45773438 1.09375 4.82421875 C0 3 0 3 0 0 Z " fill="#024CA5" transform="translate(82,92)"/>
<path d="M0 0 C0.99 0 1.98 0 3 0 C2.67 2.31 2.34 4.62 2 7 C1.01 7 0.02 7 -1 7 C-0.67 4.69 -0.34 2.38 0 0 Z " fill="#0178C7" transform="translate(22,87)"/>
<path d="M0 0 C-0.33 2.97 -0.66 5.94 -1 9 C-1.66 9 -2.32 9 -3 9 C-3 6.69 -3 4.38 -3 2 C-3.66 1.67 -4.32 1.34 -5 1 C-3 0 -3 0 0 0 Z " fill="#017ED1" transform="translate(148,75)"/>
<path d="M0 0 C5.78461538 3.32307692 5.78461538 3.32307692 6.875 6.75 C6.936875 7.86375 6.936875 7.86375 7 9 C3.26115668 6.34345343 1.35021826 4.41889613 0 0 Z " fill="#01327D" transform="translate(108,129)"/>
<path d="M0 0 C-1.13474948 3.40424844 -1.96811304 4.21653709 -5 6 C-5.99 5.67 -6.98 5.34 -8 5 C-3.375 0 -3.375 0 0 0 Z " fill="#0164B3" transform="translate(82,106)"/>
<path d="M0 0 C0.9883378 3.41557916 0.73118909 5.5268518 0 9 C0.33 9.66 0.66 10.32 1 11 C0.34 11.66 -0.32 12.32 -1 13 C-2.53690745 10.58959839 -3.09752136 9.49917715 -2.5390625 6.640625 C-2.23742188 5.85171875 -1.93578125 5.0628125 -1.625 4.25 C-1.32851562 3.45078125 -1.03203125 2.6515625 -0.7265625 1.828125 C-0.48679687 1.22484375 -0.24703125 0.6215625 0 0 Z " fill="#0678C3" transform="translate(15,85)"/>
<path d="M0 0 C1.485 0.99 1.485 0.99 3 2 C3.1875 4.625 3.1875 4.625 3 7 C1.68 6.34 0.36 5.68 -1 5 C-0.67 3.35 -0.34 1.7 0 0 Z " fill="#015895" transform="translate(108,139)"/>
<path d="M0 0 C0.33 0 0.66 0 1 0 C1.3125 2.25 1.3125 2.25 1 5 C-1.5 7.3125 -1.5 7.3125 -4 9 C-2.25 2.25 -2.25 2.25 0 0 Z " fill="#0174B0" transform="translate(79,138)"/>
<path d="M0 0 C-0.33 0.99 -0.66 1.98 -1 3 C-3.5625 4.1875 -3.5625 4.1875 -6 5 C-6.66 4.01 -7.32 3.02 -8 2 C-5.09399739 0.74335022 -3.20395416 0 0 0 Z " fill="#0078BD" transform="translate(38,112)"/>
<path d="M0 0 C2.64 0 5.28 0 8 0 C7.67 1.65 7.34 3.3 7 5 C6.67 3.68 6.34 2.36 6 1 C5.01 1.66 4.02 2.32 3 3 C2.01 3 1.02 3 0 3 C0 2.01 0 1.02 0 0 Z " fill="#023472" transform="translate(150,108)"/>
<path d="M0 0 C0.33 0 0.66 0 1 0 C1 1.65 1 3.3 1 5 C-0.98 5 -2.96 5 -5 5 C-4.67 3.68 -4.34 2.36 -4 1 C-2.68 1.66 -1.36 2.32 0 3 C0 2.01 0 1.02 0 0 Z " fill="#0056B8" transform="translate(140,81)"/>
<path d="M0 0 C1.98 0 3.96 0 6 0 C6 2.31 6 4.62 6 7 C5.34 5.68 4.68 4.36 4 3 C3.01 3 2.02 3 1 3 C0.67 2.01 0.34 1.02 0 0 Z " fill="#0582CD" transform="translate(22,81)"/>
<path d="M0 0 C1.875 0.25 1.875 0.25 4 1 C5.25 3.0625 5.25 3.0625 6 5 C3.03 4.505 3.03 4.505 0 4 C0 2.68 0 1.36 0 0 Z " fill="#002251" transform="translate(120,152)"/>
<path d="M0 0 C2.64465038 3.1254959 3.84414715 6.08788267 5 10 C2.5 8.375 2.5 8.375 0 6 C-0.3125 2.75 -0.3125 2.75 0 0 Z " fill="#00497C" transform="translate(144,146)"/>
<path d="M0 0 C0.66 0 1.32 0 2 0 C2 0.66 2 1.32 2 2 C3.98 1.67 5.96 1.34 8 1 C8 1.99 8 2.98 8 4 C5.69 3.67 3.38 3.34 1 3 C0.67 2.01 0.34 1.02 0 0 Z " fill="#034168" transform="translate(0,127)"/>
<path d="M0 0 C-2 3 -2 3 -4.625 3.6875 C-5.800625 3.8421875 -5.800625 3.8421875 -7 4 C-7 3.01 -7 2.02 -7 1 C-4.53721199 -0.231394 -2.7204945 -0.07159196 0 0 Z " fill="#015489" transform="translate(9,125)"/>
<path d="M0 0 C2 1.1875 2 1.1875 4 3 C4.25 5.6875 4.25 5.6875 4 8 C2 6.25 2 6.25 0 4 C0 2.68 0 1.36 0 0 Z " fill="#012B6C" transform="translate(103,122)"/>
<path d="M0 0 C1.32 0 2.64 0 4 0 C4 0.99 4 1.98 4 3 C3.34 3 2.68 3 2 3 C1.67 3.99 1.34 4.98 1 6 C0.34 5.34 -0.32 4.68 -1 4 C-0.625 1.875 -0.625 1.875 0 0 Z " fill="#0269B5" transform="translate(14,79)"/>
<path d="M0 0 C0.66 0 1.32 0 2 0 C1.67 1.98 1.34 3.96 1 6 C0.01 6 -0.98 6 -2 6 C-1.125 1.125 -1.125 1.125 0 0 Z " fill="#1AABE3" transform="translate(12,68)"/>
<path d="M0 0 C0.66 0.33 1.32 0.66 2 1 C1.67 2.65 1.34 4.3 1 6 C-0.32 5.67 -1.64 5.34 -3 5 C-1.125 1.125 -1.125 1.125 0 0 Z " fill="#034488" transform="translate(131,153)"/>
<path d="M0 0 C2.125 0.375 2.125 0.375 4 1 C2.824375 1.928125 2.824375 1.928125 1.625 2.875 C-0.96837647 4.89858661 -0.96837647 4.89858661 -3 7 C-2.25 2.25 -2.25 2.25 0 0 Z " fill="#39B68A" transform="translate(130,151)"/>
<path d="M0 0 C-0.66 1.32 -1.32 2.64 -2 4 C-3.65 4 -5.3 4 -7 4 C-4.83989616 0.75984424 -3.8842653 0 0 0 Z " fill="#027AB2" transform="translate(32,136)"/>
<path d="M0 0 C1.5 1.25 1.5 1.25 3 3 C3 4.32 3 5.64 3 7 C1.68 6.67 0.36 6.34 -1 6 C-0.67 4.02 -0.34 2.04 0 0 Z " fill="#012552" transform="translate(174,118)"/>
<path d="M0 0 C2 1.375 2 1.375 4 3 C4 3.66 4 4.32 4 5 C4.66 5 5.32 5 6 5 C6 5.66 6 6.32 6 7 C4.125 6.875 4.125 6.875 2 6 C0.75 2.9375 0.75 2.9375 0 0 Z " fill="#023594" transform="translate(107,115)"/>
<path d="M0 0 C1.65 0.33 3.3 0.66 5 1 C4.01 2.32 3.02 3.64 2 5 C1.01 4.67 0.02 4.34 -1 4 C-0.67 2.68 -0.34 1.36 0 0 Z " fill="#0249B3" transform="translate(92,100)"/>
<path d="M0 0 C0.66 0 1.32 0 2 0 C1.40138258 2.35171131 0.73075648 4.6859378 0 7 C-0.99 7.495 -0.99 7.495 -2 8 C-1.125 2.25 -1.125 2.25 0 0 Z " fill="#0175BF" transform="translate(148,92)"/>
<path d="M0 0 C2 3 2 3 2 5 C0.02 5 -1.96 5 -4 5 C-4 4.34 -4 3.68 -4 3 C-2.68 2.67 -1.36 2.34 0 2 C0 1.34 0 0.68 0 0 Z " fill="#0144A1" transform="translate(35,91)"/>
<path d="M0 0 C1.32 0 2.64 0 4 0 C4 0.66 4 1.32 4 2 C4.66 2.33 5.32 2.66 6 3 C2.98968256 3.93423645 2.13349732 4.04449911 -1 3 C-0.67 2.01 -0.34 1.02 0 0 Z " fill="#015AB0" transform="translate(133,88)"/>
<path d="M0 0 C4.75 0.75 4.75 0.75 7 3 C3.71023192 4.09658936 2.28696233 3.79953138 -1 3 C-0.67 2.01 -0.34 1.02 0 0 Z " fill="#0179CF" transform="translate(76,85)"/>
<path d="M0 0 C-0.33 0.66 -0.66 1.32 -1 2 C-1.66 1.67 -2.32 1.34 -3 1 C-3.33 2.32 -3.66 3.64 -4 5 C-4.66 5 -5.32 5 -6 5 C-6.33 3.68 -6.66 2.36 -7 1 C-4 0 -4 0 0 0 Z " fill="#0AAFEC" transform="translate(34,79)"/>
</svg>
